<?xml version="1.0" encoding="UTF-8"?>
<svg width="48px" height="40px" viewBox="0 0 48 40" version="1.1" xmlns="http://www.w3.org/2000/svg" xmlns:xlink="http://www.w3.org/1999/xlink">
    <!-- Generator: Sketch 52.2 (67145) - http://www.bohemiancoding.com/sketch -->
    <title>Icons/Sections/Author</title>
    <desc>Created with Sketch.</desc>
    <g id="Icons/Sections/Author" stroke="none" stroke-width="1" fill="none" fill-rule="evenodd">
        <rect id="Rectangle-" fill="#E8F0FC" x="0" y="7" width="48" height="26" rx="4"></rect>
        <rect id="Rectangle-11" fill="#BBD4F7" x="21" y="22" width="21" height="2" rx="1"></rect>
        <rect id="Rectangle-11" fill="#BBD4F7" x="21" y="17" width="17" height="3" rx="1.5"></rect>
        <path d="M11.5,20 C11.0442709,20 10.6243491,19.8893228 10.2402344,19.6679688 C9.85611969,19.4466147 9.55338532,19.1438803 9.33203125,18.7597656 C9.11067718,18.3756509 9,17.9557291 9,17.5 C9,17.0442709 9.11067718,16.6243491 9.33203125,16.2402344 C9.55338532,15.8561197 9.85611969,15.5533853 10.2402344,15.3320312 C10.6243491,15.1106772 11.0442709,15 11.5,15 C11.9557291,15 12.3756509,15.1106772 12.7597656,15.3320312 C13.1438803,15.5533853 13.4466147,15.8561197 13.6679688,16.2402344 C13.8893228,16.6243491 14,17.0442709 14,17.5 C14,17.9557291 13.8893228,18.3756509 13.6679688,18.7597656 C13.4466147,19.1438803 13.1438803,19.4466147 12.7597656,19.6679688 C12.3756509,19.8893228 11.9557291,20 11.5,20 Z M13.3080357,21 C13.7901786,21 14.2388392,21.1339286 14.6540179,21.4017857 C15.0691965,21.6696429 15.3973214,22.0342261 15.6383929,22.4955357 C15.8794643,22.9568454 16,23.4553571 16,23.9910714 L16,24.9285714 C16,25.2261904 15.9062499,25.4791668 15.71875,25.6875 C15.5312501,25.8958332 15.3035713,26 15.0357143,26 L7.96428571,26 C7.69642867,26 7.4687499,25.8958332 7.28125,25.6875 C7.0937501,25.4791668 7,25.2261904 7,24.9285714 L7,23.9910714 C7,23.4553571 7.12053571,22.9568454 7.36160714,22.4955357 C7.60267857,22.0342261 7.93080347,21.6696429 8.34598214,21.4017857 C8.76116082,21.1339286 9.20982143,21 9.69196429,21 L10.0334821,21 C10.502232,21.2380954 10.9910715,21.3571429 11.5,21.3571429 C12.0089285,21.3571429 12.497768,21.2380954 12.9665179,21 L13.3080357,21 Z" id="user" fill="#0764E3"></path>
    </g>
</svg>