<?xml version="1.0" encoding="UTF-8"?>
<svg width="48px" height="40px" viewBox="0 0 48 40" version="1.1" xmlns="http://www.w3.org/2000/svg" xmlns:xlink="http://www.w3.org/1999/xlink">
    <!-- Generator: Sketch 52.2 (67145) - http://www.bohemiancoding.com/sketch -->
    <title>Icons/Sections/Carousel</title>
    <desc>Created with Sketch.</desc>
    <g id="Icons/Sections/Carousel" stroke="none" stroke-width="1" fill="none" fill-rule="evenodd">
        <rect id="Combined-Shape" stroke="#E8F0FC" stroke-width="1.5" fill="#E8F0FC" x="0.75" y="0.75" width="46.5" height="38.5" rx="4"></rect>
        <path d="M42.0156127,19.968762 L37.9960911,24.0156273 C37.9231744,24.088544 37.8457008,24.1250021 37.7636698,24.1250021 C37.6816387,24.1250021 37.6041651,24.0976584 37.5312484,24.042971 L36.9843747,23.4960973 C36.9296874,23.4231807 36.9023437,23.3411496 36.9023437,23.2500042 C36.9023437,23.1588587 36.9296874,23.0859421 36.9843747,23.0312547 L40.2382732,19.7500125 L36.9843747,16.4687703 C36.9296874,16.414083 36.9023437,16.3411663 36.9023437,16.2500209 C36.9023437,16.1588754 36.9296874,16.0768443 36.9843747,16.0039277 L37.5312484,15.457054 C37.6041651,15.4023666 37.6816387,15.3750229 37.7636698,15.3750229 C37.8457008,15.3750229 37.9231744,15.4023666 37.9960911,15.457054 L42.0156127,19.5039194 C42.0703001,19.576836 42.0976438,19.658867 42.0976438,19.7500125 C42.0976438,19.841158 42.0703001,19.923189 42.0156127,19.9961057 L42.0156127,19.968762 Z" id="angle-right" fill="#0764E3"></path>
        <path d="M5.98437474,19.5039194 L10.0038964,15.457054 C10.076813,15.4023666 10.1542867,15.3750229 10.2363177,15.3750229 C10.3183488,15.3750229 10.3958224,15.4023666 10.468739,15.457054 L11.0156127,16.0039277 C11.0703001,16.0768443 11.0976438,16.1588754 11.0976438,16.2500209 C11.0976438,16.3411663 11.0703001,16.414083 11.0156127,16.4687703 L7.76171425,19.7500125 L11.0156127,23.0312547 C11.0703001,23.0859421 11.0976438,23.1588587 11.0976438,23.2500042 C11.0976438,23.3411496 11.0703001,23.4231807 11.0156127,23.4960973 L10.468739,24.0156273 C10.3958224,24.088544 10.3183488,24.1250021 10.2363177,24.1250021 C10.1542867,24.1250021 10.076813,24.0976584 10.0038964,24.042971 L5.98437474,19.968762 C5.92968737,19.9140746 5.90234368,19.841158 5.90234368,19.7500125 C5.90234368,19.658867 5.92968737,19.576836 5.98437474,19.5039194 Z" id="angle-left" fill="#0764E3"></path>
        <circle id="Oval-6" fill="#BBD4F7" cx="17.5" cy="33.5" r="1.5"></circle>
        <circle id="Oval-6" fill="#BBD4F7" cx="23.5" cy="33.5" r="1.5"></circle>
        <circle id="Oval-6" fill="#BBD4F7" cx="29.5" cy="33.5" r="1.5"></circle>
    </g>
</svg>