<?xml version="1.0" encoding="UTF-8"?>
<svg width="48px" height="40px" viewBox="0 0 48 40" version="1.1" xmlns="http://www.w3.org/2000/svg" xmlns:xlink="http://www.w3.org/1999/xlink">
    <!-- Generator: Sketch 52.6 (67491) - http://www.bohemiancoding.com/sketch -->
    <title>Icons/Sections/CarouselThumb</title>
    <desc>Created with Sketch.</desc>
    <defs>
        <rect id="path-1" x="0" y="0" width="44" height="36" rx="4"></rect>
    </defs>
    <g id="Icons/Sections/CarouselThumb" stroke="none" stroke-width="1" fill="none" fill-rule="evenodd">
        <rect id="Combined-Shape" stroke="#E8F0FC" stroke-width="1.5" fill="#E8F0FC" x="0.75" y="0.75" width="46.5" height="38.5" rx="4"></rect>
        <g id="image-copy" transform="translate(24.000000, 20.000000) scale(-1, 1) translate(-24.000000, -20.000000) translate(2.000000, 2.000000)">
            <mask id="mask-2" fill="white">
                <use xlink:href="#path-1"></use>
            </mask>
            <g id="Mask"></g>
            <path d="M-2,38 L-2,30.7017544 L4,24.619883 C4.3,24.3157895 4.70000076,24.1637427 5.2,24.1637427 C5.69999924,24.1637427 6.1,24.3157895 6.4,24.619883 L12.4,30.7017544 L30.4,12.4561404 C30.7,12.1520468 31.1000008,12 31.6,12 C32.0999992,12 32.5,12.1520468 32.8,12.4561404 L46,25.8362573 L46,38 L-2,38 Z" id="image" fill="#F6FAFF" mask="url(#mask-2)"></path>
        </g>
        <circle id="Oval-6" fill="#0764E3" cx="15" cy="30" r="3"></circle>
        <circle id="Oval-6" fill="#BBD4F7" cx="24" cy="30" r="3"></circle>
        <circle id="Oval-6" fill="#BBD4F7" cx="33" cy="30" r="3"></circle>
    </g>
</svg>