<?xml version="1.0" encoding="UTF-8"?>
<svg width="48px" height="40px" viewBox="0 0 48 40" version="1.1" xmlns="http://www.w3.org/2000/svg" xmlns:xlink="http://www.w3.org/1999/xlink">
    <!-- Generator: Sketch 52.1 (67048) - http://www.bohemiancoding.com/sketch -->
    <title>Icons/Sections/Counters</title>
    <desc>Created with Sketch.</desc>
    <g id="Icons/Sections/Counters" stroke="none" stroke-width="1" fill="none" fill-rule="evenodd">
        <path d="M20.6399735,13.4169985 C20.6240624,13.4997389 20.6071012,13.6164243 20.5904314,13.7620079 C20.5831924,13.8252288 20.5760796,13.8931702 20.5691028,13.9656701 C20.4909242,13.9301139 20.4181735,13.8979873 20.3510816,13.8694054 C20.2088932,13.8088317 20.0972707,13.7664974 20.024359,13.7442291 C20.1419671,13.7720334 20.2228474,13.7616633 20.4343294,13.6114393 C20.6082441,13.4879008 20.6300514,13.4520738 20.646396,13.3843494 Z M20.5691028,13.9656701 C20.5358638,14.3110757 20.5057119,14.7599471 20.4797097,15.2947442 C20.4189439,16.5445375 20.3833739,18.213025 20.3795758,19.9306593 C20.3757246,21.6723152 20.4047423,23.3296913 20.4629367,24.561801 C20.4884022,25.1009656 20.5190479,25.5505198 20.5538814,25.8936655 C20.8653399,25.7538407 21.264989,25.5580452 21.7378757,25.3137451 C22.8316207,24.7487006 24.2776526,23.9444754 25.7741309,23.071469 C27.2568163,22.206509 28.6745258,21.3407482 29.7144542,20.6634156 C30.1573849,20.3749233 30.5242444,20.1255392 30.8007593,19.9248434 C30.5226612,19.7235684 30.1532664,19.4731953 29.7068624,19.1832688 C28.664281,18.5061422 27.24213,17.6396643 25.7521475,16.7718244 C24.2544004,15.899462 22.8053344,15.0939568 21.7122606,14.5284672 C21.258335,14.2936338 20.8727714,14.1037805 20.5691028,13.9656701 Z M20.6325331,26.4466603 C20.6339192,26.4526947 20.6352952,26.4584738 20.6366601,26.4639942 C20.6339424,26.4530018 20.6311991,26.4425929 20.6280167,26.4325219 Z M20.031791,26.1026678 C20.0268342,26.1039606 20.0218199,26.105336 20.0167165,26.1067737 C20.0317784,26.1025305 20.048703,26.0973242 20.0674086,26.0911728 Z M31.2527347,20.2791913 C31.2564304,20.2828386 31.2602472,20.2865266 31.2641867,20.2902945 C31.2525373,20.2791524 31.2391322,20.2668814 31.2240269,20.2535398 Z M20.024359,13.7442291 C20.0178737,13.7422484 20.0116946,13.7404264 20.0058275,13.7387645 C20.0180606,13.7422297 20.0298119,13.7454053 20.0413054,13.7481341 Z" id="Combined-Shape" stroke="#0764E3" stroke-width="1.5" fill="#E8F0FC"></path>
        <rect id="Rectangle-" fill="#E8F0FC" x="0" y="0" width="48" height="40" rx="4"></rect>
        <rect id="Rectangle-11" fill="#BBD4F7" x="8" y="23" width="32" height="3" rx="1.5"></rect>
        <rect id="Rectangle-11" fill="#BBD4F7" x="8" y="29" width="23" height="3" rx="1.5"></rect>
        <path d="M12.548,19.16 C11.6199954,19.16 10.82267,19.0133348 10.156,18.72 C9.48933,18.4266652 8.98000176,18.0186693 8.628,17.496 C8.27599824,16.9733307 8.1,16.3760034 8.1,15.704 C8.1,15.1066637 8.2466652,14.5760023 8.54,14.112 C8.8333348,13.6479977 9.23066416,13.2933346 9.732,13.048 C9.33733136,12.8026654 9.0333344,12.4853353 8.82,12.096 C8.6066656,11.7066647 8.5,11.2613358 8.5,10.76 C8.5,9.82132864 8.85466312,9.06666952 9.564,8.496 C10.2733369,7.92533048 11.2679936,7.64 12.548,7.64 C13.8280064,7.64 14.8199965,7.92266384 15.524,8.488 C16.2280035,9.05333616 16.58,9.80532864 16.58,10.744 C16.58,11.2453358 16.476001,11.6906647 16.268,12.08 C16.059999,12.4693353 15.7586686,12.7919987 15.364,13.048 C15.8760026,13.2933346 16.2786652,13.6479977 16.572,14.112 C16.8653348,14.5760023 17.012,15.111997 17.012,15.72 C17.012,16.3920034 16.8360018,16.9866641 16.484,17.504 C16.1319982,18.0213359 15.6200034,18.4266652 14.948,18.72 C14.2759966,19.0133348 13.4760046,19.16 12.548,19.16 Z M12.548,12.344 C13.1026694,12.3333333 13.5639982,12.1920014 13.932,11.92 C14.3000018,11.6479986 14.484,11.2880022 14.484,10.84 C14.484,10.381331 14.3026685,10.0133347 13.94,9.736 C13.5773315,9.45866528 13.1133362,9.32 12.548,9.32 C11.9933306,9.32 11.5346685,9.45866528 11.172,9.736 C10.8093315,10.0133347 10.628,10.381331 10.628,10.84 C10.628,11.298669 10.8093315,11.6639986 11.172,11.936 C11.5346685,12.2080014 11.9933306,12.344 12.548,12.344 Z M12.548,17.48 C13.1773365,17.48 13.7026646,17.3200016 14.124,17 C14.5453354,16.6799984 14.756,16.253336 14.756,15.72 C14.756,15.186664 14.5453354,14.7600016 14.124,14.44 C13.7026646,14.1199984 13.1773365,13.96 12.548,13.96 C11.9186635,13.96 11.3960021,14.1173318 10.98,14.432 C10.5639979,14.7466682 10.356,15.1759973 10.356,15.72 C10.356,16.253336 10.5639979,16.6799984 10.98,17 C11.3960021,17.3200016 11.9186635,17.48 12.548,17.48 Z M20.74,19 C20.6439995,19 20.5640003,18.9653337 20.5,18.896 C20.4359997,18.8266663 20.404,18.7440005 20.404,18.648 C20.404,18.5839997 20.4306664,18.514667 20.484,18.44 L22.836,15.208 C22.6546658,15.2506669 22.430668,15.272 22.164,15.272 C21.4599965,15.2506666 20.8173362,15.0720017 20.236,14.736 C19.6546638,14.3999983 19.193335,13.9520028 18.852,13.392 C18.510665,12.8319972 18.34,12.2106701 18.34,11.528 C18.34,10.8559966 18.5053317,10.224003 18.836,9.632 C19.1666683,9.03999704 19.6573301,8.56000184 20.308,8.192 C20.9586699,7.82399816 21.7426621,7.64 22.66,7.64 C23.5880046,7.64 24.3826634,7.8133316 25.044,8.16 C25.7053366,8.5066684 26.2039983,8.97066376 26.54,9.552 C26.8760017,10.1333362 27.044,10.7706632 27.044,11.464 C27.044,11.9013355 26.9746674,12.3119981 26.836,12.696 C26.6973326,13.0800019 26.5400009,13.4133319 26.364,13.696 C26.1879991,13.9786681 25.9400016,14.3439978 25.62,14.792 L22.82,18.68 C22.7346662,18.7866672 22.654667,18.8666664 22.58,18.92 C22.505333,18.9733336 22.4040006,19 22.276,19 L20.74,19 Z M22.676,13.544 C23.2626696,13.544 23.7533314,13.3600018 24.148,12.992 C24.5426686,12.6239982 24.74,12.136003 24.74,11.528 C24.74,10.9093302 24.5426686,10.4160018 24.148,10.048 C23.7533314,9.67999816 23.2626696,9.496 22.676,9.496 C22.0999971,9.496 21.6146686,9.67999816 21.22,10.048 C20.8253314,10.4160018 20.628,10.9093302 20.628,11.528 C20.628,12.136003 20.8226647,12.6239982 21.212,12.992 C21.6013353,13.3600018 22.0893304,13.544 22.676,13.544 Z" id="89" fill="#0764E3"></path>
    </g>
</svg>