<?xml version="1.0" encoding="UTF-8"?>
<svg width="48px" height="40px" viewBox="0 0 48 40" version="1.1" xmlns="http://www.w3.org/2000/svg" xmlns:xlink="http://www.w3.org/1999/xlink">
    <!-- Generator: Sketch 52.1 (67048) - http://www.bohemiancoding.com/sketch -->
    <title>Icons/Sections/Countdown</title>
    <desc>Created with Sketch.</desc>
    <g id="Icons/Sections/Countdown" stroke="none" stroke-width="1" fill="none" fill-rule="evenodd">
        <path d="M20.6399735,13.4169985 C20.6240624,13.4997389 20.6071012,13.6164243 20.5904314,13.7620079 C20.5831924,13.8252288 20.5760796,13.8931702 20.5691028,13.9656701 C20.4909242,13.9301139 20.4181735,13.8979873 20.3510816,13.8694054 C20.2088932,13.8088317 20.0972707,13.7664974 20.024359,13.7442291 C20.1419671,13.7720334 20.2228474,13.7616633 20.4343294,13.6114393 C20.6082441,13.4879008 20.6300514,13.4520738 20.646396,13.3843494 Z M20.5691028,13.9656701 C20.5358638,14.3110757 20.5057119,14.7599471 20.4797097,15.2947442 C20.4189439,16.5445375 20.3833739,18.213025 20.3795758,19.9306593 C20.3757246,21.6723152 20.4047423,23.3296913 20.4629367,24.561801 C20.4884022,25.1009656 20.5190479,25.5505198 20.5538814,25.8936655 C20.8653399,25.7538407 21.264989,25.5580452 21.7378757,25.3137451 C22.8316207,24.7487006 24.2776526,23.9444754 25.7741309,23.071469 C27.2568163,22.206509 28.6745258,21.3407482 29.7144542,20.6634156 C30.1573849,20.3749233 30.5242444,20.1255392 30.8007593,19.9248434 C30.5226612,19.7235684 30.1532664,19.4731953 29.7068624,19.1832688 C28.664281,18.5061422 27.24213,17.6396643 25.7521475,16.7718244 C24.2544004,15.899462 22.8053344,15.0939568 21.7122606,14.5284672 C21.258335,14.2936338 20.8727714,14.1037805 20.5691028,13.9656701 Z M20.6325331,26.4466603 C20.6339192,26.4526947 20.6352952,26.4584738 20.6366601,26.4639942 C20.6339424,26.4530018 20.6311991,26.4425929 20.6280167,26.4325219 Z M20.031791,26.1026678 C20.0268342,26.1039606 20.0218199,26.105336 20.0167165,26.1067737 C20.0317784,26.1025305 20.048703,26.0973242 20.0674086,26.0911728 Z M31.2527347,20.2791913 C31.2564304,20.2828386 31.2602472,20.2865266 31.2641867,20.2902945 C31.2525373,20.2791524 31.2391322,20.2668814 31.2240269,20.2535398 Z M20.024359,13.7442291 C20.0178737,13.7422484 20.0116946,13.7404264 20.0058275,13.7387645 C20.0180606,13.7422297 20.0298119,13.7454053 20.0413054,13.7481341 Z" id="Combined-Shape" stroke="#0764E3" stroke-width="1.5" fill="#E8F0FC"></path>
        <rect id="Rectangle-" stroke="#BBD4F7" stroke-width="1.5" fill="#E8F0FC" x="0.75" y="0.75" width="46.5" height="38.5" rx="4"></rect>
        <circle id="Oval" fill="#0764E3" cx="19" cy="19" r="1"></circle>
        <circle id="Oval" fill="#0764E3" cx="19" cy="23" r="1"></circle>
        <path d="M10.715,25.5 C10.6309996,25.5 10.5610003,25.469667 10.505,25.409 C10.4489997,25.348333 10.421,25.2760004 10.421,25.192 C10.421,25.1639999 10.4303332,25.1220003 10.449,25.066 L13.809,17.38 L9.427,17.38 C9.3336662,17.38 9.25433366,17.3473337 9.189,17.282 C9.12366634,17.2166663 9.091,17.1373338 9.091,17.044 L9.091,16.05 C9.091,15.9473328 9.12133303,15.8633337 9.182,15.798 C9.24266697,15.7326663 9.32433282,15.7 9.427,15.7 L15.587,15.7 C15.6896672,15.7 15.7736663,15.7326663 15.839,15.798 C15.9043337,15.8633337 15.937,15.9473328 15.937,16.05 L15.937,16.932 C15.937,17.128001 15.8903338,17.3286656 15.797,17.534 L12.465,25.164 C12.4089997,25.2666672 12.3483337,25.348333 12.283,25.409 C12.2176663,25.469667 12.1290006,25.5 12.017,25.5 L10.715,25.5 Z" id="7" fill="#0764E3"></path>
        <path d="M23.513,25.5 C23.4196662,25.5 23.3403337,25.4673337 23.275,25.402 C23.2096663,25.3366663 23.177,25.2573338 23.177,25.164 L23.177,24.436 C23.177,24.1746654 23.2936655,23.9553342 23.527,23.778 L25.711,21.608 C26.37367,21.0853307 26.8846649,20.658335 27.244,20.327 C27.6033351,19.995665 27.8716658,19.6900014 28.049,19.41 C28.2263342,19.1299986 28.315,18.854668 28.315,18.584 C28.315,18.1453311 28.1983345,17.8000013 27.965,17.548 C27.7316655,17.2959987 27.3770024,17.17 26.901,17.17 C26.434331,17.17 26.0680013,17.3076653 25.802,17.583 C25.5359987,17.8583347 25.3703337,18.2153311 25.305,18.654 C25.2769999,18.7660006 25.2233337,18.8476664 25.144,18.899 C25.0646663,18.9503336 24.9783338,18.976 24.885,18.976 L23.625,18.976 C23.5409996,18.976 23.4710003,18.9480003 23.415,18.892 C23.3589997,18.8359997 23.331,18.7660004 23.331,18.682 C23.3496668,18.1313306 23.5013319,17.6156691 23.786,17.135 C24.0706681,16.6543309 24.4789973,16.2670015 25.011,15.973 C25.5430027,15.6789985 26.1683297,15.532 26.887,15.532 C27.6336704,15.532 28.2683307,15.660332 28.791,15.917 C29.3136693,16.173668 29.7056654,16.5259978 29.967,16.974 C30.2283346,17.4220022 30.359,17.9306638 30.359,18.5 C30.359,19.1253365 30.1840018,19.6923308 29.834,20.201 C29.4839982,20.7096692 28.940337,21.2533304 28.203,21.832 L26.257,23.806 L30.219,23.806 C30.3216672,23.806 30.4056663,23.8386663 30.471,23.904 C30.5363337,23.9693337 30.569,24.0533328 30.569,24.156 L30.569,25.164 C30.569,25.2666672 30.5363337,25.348333 30.471,25.409 C30.4056663,25.469667 30.3216672,25.5 30.219,25.5 L23.513,25.5 Z M35.833,25.64 C34.5823271,25.64 33.6513364,25.2946701 33.04,24.604 C32.4286636,23.9133299 32.0950003,23.0080056 32.039,21.888 C32.0296666,21.6359987 32.025,21.2066697 32.025,20.6 C32.025,19.9839969 32.0296666,19.5453346 32.039,19.284 C32.0856669,18.1826612 32.4216635,17.2866701 33.047,16.596 C33.6723365,15.9053299 34.6009938,15.56 35.833,15.56 C37.0650062,15.56 37.9936635,15.9053299 38.619,16.596 C39.2443365,17.2866701 39.5803331,18.1826612 39.627,19.284 C39.6456668,19.8066693 39.655,20.2453316 39.655,20.6 C39.655,20.9546684 39.6456668,21.3839975 39.627,21.888 C39.5709997,23.0080056 39.2373364,23.9133299 38.626,24.604 C38.0146636,25.2946701 37.0836729,25.64 35.833,25.64 Z M35.833,24.002 C36.4116696,24.002 36.8456652,23.8130019 37.135,23.435 C37.4243348,23.0569981 37.5783332,22.5180035 37.597,21.818 C37.6063334,21.547332 37.611,21.1320028 37.611,20.572 C37.611,20.0119972 37.6063334,19.6060013 37.597,19.354 C37.5783332,18.6726633 37.4243348,18.1406686 37.135,17.758 C36.8456652,17.3753314 36.4116696,17.1793334 35.833,17.17 C35.2543304,17.1793334 34.8203348,17.3753314 34.531,17.758 C34.2416652,18.1406686 34.0876668,18.6726633 34.069,19.354 C34.0596666,19.6060013 34.055,20.0119972 34.055,20.572 C34.055,21.1320028 34.0596666,21.547332 34.069,21.818 C34.0876668,22.5180035 34.2416652,23.0569981 34.531,23.435 C34.8203348,23.8130019 35.2543304,24.002 35.833,24.002 Z" id="20" fill="#0764E3"></path>
    </g>
</svg>