<?xml version="1.0" encoding="UTF-8"?>
<svg width="48px" height="40px" viewBox="0 0 48 40" version="1.1" xmlns="http://www.w3.org/2000/svg" xmlns:xlink="http://www.w3.org/1999/xlink">
    <!-- Generator: Sketch 52.6 (67491) - http://www.bohemiancoding.com/sketch -->
    <title>Icons/Sections/DetailedProduct</title>
    <desc>Created with Sketch.</desc>
    <defs>
        <path d="M3,0 L24,0 L24,36 L3,36 C1.34314575,36 2.02906125e-16,34.6568542 0,33 L0,3 C-2.02906125e-16,1.34314575 1.34314575,3.04359188e-16 3,0 Z" id="path-1"></path>
    </defs>
    <g id="Icons/Sections/DetailedProduct" stroke="none" stroke-width="1" fill="none" fill-rule="evenodd">
        <rect id="Combined-Shape" stroke="#E8F0FC" stroke-width="1.5" fill="#E8F0FC" x="0.75" y="0.75" width="46.5" height="38.5" rx="4"></rect>
        <g id="shopping-bag" transform="translate(2.000000, 2.000000)">
            <mask id="mask-2" fill="white">
                <use xlink:href="#path-1"></use>
            </mask>
            <use id="Mask" fill="#FFFFFF" xlink:href="#path-1"></use>
            <path d="M20.9999571,15.7500173 L20.9999571,16.2500161 C20.9999571,16.4583491 20.9270408,16.6354317 20.7812076,16.7812648 C20.6353745,16.927098 20.4582919,17.0000143 20.2499589,17.0000143 L19.9999595,17.0000143 L19.1874614,22.7187507 C19.1249616,23.0937498 18.953087,23.4010406 18.6718376,23.6406235 C18.3905883,23.8802064 18.0624641,23.9999976 17.687465,23.9999976 L6.3124921,23.9999976 C5.937493,23.9999976 5.60936878,23.8802064 5.32811945,23.6406235 C5.04687012,23.4010406 4.87499553,23.0937498 4.81249568,22.7187507 L3.99999762,17.0000143 L3.74999821,17.0000143 C3.54166522,17.0000143 3.36458262,16.927098 3.21874948,16.7812648 C3.07291633,16.6354317 3,16.4583491 3,16.2500161 L3,15.7500173 C3,15.5416843 3.07291633,15.3646017 3.21874948,15.2187686 C3.36458262,15.0729354 3.54166522,15.0000191 3.74999821,15.0000191 L5.84374322,15.0000191 L9.18748525,10.40628 C9.35415136,10.1771141 9.57290084,10.0416974 9.84373368,10.000031 C10.1145665,9.95836459 10.3645659,10.0208644 10.5937319,10.1875305 C10.8228979,10.3541967 10.9583145,10.5729461 10.9999809,10.843779 C11.0416473,11.1146118 10.9791475,11.3646112 10.8124814,11.5937772 L8.31248733,15.0000191 L15.6874698,15.0000191 L13.1874757,11.5937772 C13.0208096,11.3646112 12.9583097,11.1146118 12.9999762,10.843779 C13.0416426,10.5729461 13.1770592,10.3541967 13.4062252,10.1875305 C13.6353912,10.0208644 13.8853906,9.95836459 14.1562234,10.000031 C14.4270562,10.0416974 14.6458057,10.1771141 14.8124718,10.40628 L18.1562139,15.0000191 L20.2499589,15.0000191 C20.4582919,15.0000191 20.6353745,15.0729354 20.7812076,15.2187686 C20.9270408,15.3646017 20.9999571,15.5416843 20.9999571,15.7500173 Z M12.7499768,21.2500042 L12.7499768,17.7500125 C12.7499768,17.5416795 12.6770604,17.3645969 12.5312273,17.2187638 C12.3853941,17.0729306 12.2083115,17.0000143 11.9999785,17.0000143 C11.7916455,17.0000143 11.614563,17.0729306 11.4687298,17.2187638 C11.3228967,17.3645969 11.2499803,17.5416795 11.2499803,17.7500125 L11.2499803,21.2500042 C11.2499803,21.4583372 11.3228967,21.6354198 11.4687298,21.7812529 C11.614563,21.9270861 11.7916455,22.0000024 11.9999785,22.0000024 C12.2083115,22.0000024 12.3853941,21.9270861 12.5312273,21.7812529 C12.6770604,21.6354198 12.7499768,21.4583372 12.7499768,21.2500042 Z M16.2499684,21.2500042 L16.2499684,17.7500125 C16.2499684,17.5416795 16.1770521,17.3645969 16.0312189,17.2187638 C15.8853858,17.0729306 15.7083032,17.0000143 15.4999702,17.0000143 C15.2916372,17.0000143 15.1145546,17.0729306 14.9687215,17.2187638 C14.8228883,17.3645969 14.749972,17.5416795 14.749972,17.7500125 L14.749972,21.2500042 C14.749972,21.4583372 14.8228883,21.6354198 14.9687215,21.7812529 C15.1145546,21.9270861 15.2916372,22.0000024 15.4999702,22.0000024 C15.7083032,22.0000024 15.8853858,21.9270861 16.0312189,21.7812529 C16.1770521,21.6354198 16.2499684,21.4583372 16.2499684,21.2500042 Z M9.2499851,21.2500042 L9.2499851,17.7500125 C9.2499851,17.5416795 9.17706876,17.3645969 9.03123562,17.2187638 C8.88540248,17.0729306 8.70831988,17.0000143 8.49998689,17.0000143 C8.29165389,17.0000143 8.1145713,17.0729306 7.96873815,17.2187638 C7.82290501,17.3645969 7.74998868,17.5416795 7.74998868,17.7500125 L7.74998868,21.2500042 C7.74998868,21.4583372 7.82290501,21.6354198 7.96873815,21.7812529 C8.1145713,21.9270861 8.29165389,22.0000024 8.49998689,22.0000024 C8.70831988,22.0000024 8.88540248,21.9270861 9.03123562,21.7812529 C9.17706876,21.6354198 9.2499851,21.4583372 9.2499851,21.2500042 Z" id="shopping-basket" fill="#BBD4F7" mask="url(#mask-2)"></path>
        </g>
        <rect id="Rectangle-11" fill="#BBD4F7" x="30" y="6" width="11" height="3" rx="1.5"></rect>
        <rect id="Rectangle-11" fill="#0764E3" x="30" y="33" width="7" height="2" rx="1"></rect>
        <rect id="Rectangle-11" fill="#BBD4F7" x="30" y="13" width="14" height="2" rx="1"></rect>
        <rect id="Rectangle-11" fill="#BBD4F7" x="30" y="16" width="14" height="2" rx="1"></rect>
        <rect id="Rectangle-11" fill="#BBD4F7" x="30" y="19" width="14" height="2" rx="1"></rect>
        <rect id="Rectangle-11" fill="#BBD4F7" x="30" y="22" width="12" height="2" rx="1"></rect>
    </g>
</svg>