<?xml version="1.0" encoding="UTF-8"?>
<svg width="48px" height="40px" viewBox="0 0 48 40" version="1.1" xmlns="http://www.w3.org/2000/svg" xmlns:xlink="http://www.w3.org/1999/xlink">
    <!-- Generator: Sketch 52.2 (67145) - http://www.bohemiancoding.com/sketch -->
    <title>Icons/Sections/Event schedule</title>
    <desc>Created with Sketch.</desc>
    <g id="Icons/Sections/Event-schedule" stroke="none" stroke-width="1" fill="none" fill-rule="evenodd">
        <rect id="Combined-Shape" stroke="#E8F0FC" stroke-width="1.5" fill="#E8F0FC" x="0.75" y="0.75" width="46.5" height="38.5" rx="4"></rect>
        <rect id="Rectangle" fill="#BBD4F7" x="16" y="17" width="8" height="3" rx="1.5"></rect>
        <rect id="Rectangle" fill="#0764E3" x="16" y="6" width="8" height="3" rx="1.5"></rect>
        <rect id="Rectangle" fill="#BBD4F7" x="16" y="27" width="8" height="3" rx="1.5"></rect>
        <rect id="Rectangle" fill="#BBD4F7" x="16" y="22" width="26" height="2" rx="1"></rect>
        <rect id="Rectangle" fill="#0764E3" x="16" y="11" width="26" height="2" rx="1"></rect>
        <rect id="Rectangle" fill="#BBD4F7" x="16" y="32" width="26" height="2" rx="1"></rect>
        <path d="M11.8392857,9 C11.8839285,9 11.9218751,9.0145834 11.953125,9.04375 C11.9843749,9.0729166 12,9.1083334 12,9.15 L12,12.4 C12,12.5666666 11.9374999,12.7083334 11.8125,12.825 C11.6875001,12.9416666 11.5357142,13 11.3571429,13 L6.64285714,13 C6.46428578,13 6.31249993,12.9416666 6.1875,12.825 C6.06250007,12.7083334 6,12.5666666 6,12.4 L6,9.15 C6,9.1083334 6.01562507,9.0729166 6.046875,9.04375 C6.07812493,9.0145834 6.1160715,9 6.16071429,9 L11.8392857,9 Z M12,7.85 C12,7.8916666 11.9843749,7.9270834 11.953125,7.95625 C11.9218751,7.9854166 11.8839285,8 11.8392857,8 L6.16071429,8 C6.1160715,8 6.07812493,7.9854166 6.046875,7.95625 C6.01562507,7.9270834 6,7.8916666 6,7.85 L6,7.4 C6,7.2333334 6.06250007,7.0916666 6.1875,6.975 C6.31249993,6.8583334 6.46428578,6.8 6.64285714,6.8 L7.28571429,6.8 L7.28571429,6.15 C7.28571429,6.1083334 7.30133935,6.0729166 7.33258929,6.04375 C7.36383922,6.0145834 7.40178578,6 7.44642857,6 L7.98214286,6 C8.02678565,6 8.06473221,6.0145834 8.09598214,6.04375 C8.12723207,6.0729166 8.14285714,6.1083334 8.14285714,6.15 L8.14285714,6.8 L9.85714286,6.8 L9.85714286,6.15 C9.85714286,6.1083334 9.87276793,6.0729166 9.90401786,6.04375 C9.93526779,6.0145834 9.97321435,6 10.0178571,6 L10.5535714,6 C10.5982142,6 10.6361608,6.0145834 10.6674107,6.04375 C10.6986606,6.0729166 10.7142857,6.1083334 10.7142857,6.15 L10.7142857,6.8 L11.3571429,6.8 C11.5357142,6.8 11.6875001,6.8583334 11.8125,6.975 C11.9374999,7.0916666 12,7.2333334 12,7.4 L12,7.85 Z" id="calendar" fill="#0764E3"></path>
        <path d="M11.8392857,20 C11.8839285,20 11.9218751,20.0145834 11.953125,20.04375 C11.9843749,20.0729166 12,20.1083334 12,20.15 L12,23.4 C12,23.5666666 11.9374999,23.7083334 11.8125,23.825 C11.6875001,23.9416666 11.5357142,24 11.3571429,24 L6.64285714,24 C6.46428578,24 6.31249993,23.9416666 6.1875,23.825 C6.06250007,23.7083334 6,23.5666666 6,23.4 L6,20.15 C6,20.1083334 6.01562507,20.0729166 6.046875,20.04375 C6.07812493,20.0145834 6.1160715,20 6.16071429,20 L11.8392857,20 Z M12,18.85 C12,18.8916666 11.9843749,18.9270834 11.953125,18.95625 C11.9218751,18.9854166 11.8839285,19 11.8392857,19 L6.16071429,19 C6.1160715,19 6.07812493,18.9854166 6.046875,18.95625 C6.01562507,18.9270834 6,18.8916666 6,18.85 L6,18.4 C6,18.2333334 6.06250007,18.0916666 6.1875,17.975 C6.31249993,17.8583334 6.46428578,17.8 6.64285714,17.8 L7.28571429,17.8 L7.28571429,17.15 C7.28571429,17.1083334 7.30133935,17.0729166 7.33258929,17.04375 C7.36383922,17.0145834 7.40178578,17 7.44642857,17 L7.98214286,17 C8.02678565,17 8.06473221,17.0145834 8.09598214,17.04375 C8.12723207,17.0729166 8.14285714,17.1083334 8.14285714,17.15 L8.14285714,17.8 L9.85714286,17.8 L9.85714286,17.15 C9.85714286,17.1083334 9.87276793,17.0729166 9.90401786,17.04375 C9.93526779,17.0145834 9.97321435,17 10.0178571,17 L10.5535714,17 C10.5982142,17 10.6361608,17.0145834 10.6674107,17.04375 C10.6986606,17.0729166 10.7142857,17.1083334 10.7142857,17.15 L10.7142857,17.8 L11.3571429,17.8 C11.5357142,17.8 11.6875001,17.8583334 11.8125,17.975 C11.9374999,18.0916666 12,18.2333334 12,18.4 L12,18.85 Z" id="calendar-copy" fill="#BBD4F7"></path>
        <path d="M11.8392857,30 C11.8839285,30 11.9218751,30.0145834 11.953125,30.04375 C11.9843749,30.0729166 12,30.1083334 12,30.15 L12,33.4 C12,33.5666666 11.9374999,33.7083334 11.8125,33.825 C11.6875001,33.9416666 11.5357142,34 11.3571429,34 L6.64285714,34 C6.46428578,34 6.31249993,33.9416666 6.1875,33.825 C6.06250007,33.7083334 6,33.5666666 6,33.4 L6,30.15 C6,30.1083334 6.01562507,30.0729166 6.046875,30.04375 C6.07812493,30.0145834 6.1160715,30 6.16071429,30 L11.8392857,30 Z M12,28.85 C12,28.8916666 11.9843749,28.9270834 11.953125,28.95625 C11.9218751,28.9854166 11.8839285,29 11.8392857,29 L6.16071429,29 C6.1160715,29 6.07812493,28.9854166 6.046875,28.95625 C6.01562507,28.9270834 6,28.8916666 6,28.85 L6,28.4 C6,28.2333334 6.06250007,28.0916666 6.1875,27.975 C6.31249993,27.8583334 6.46428578,27.8 6.64285714,27.8 L7.28571429,27.8 L7.28571429,27.15 C7.28571429,27.1083334 7.30133935,27.0729166 7.33258929,27.04375 C7.36383922,27.0145834 7.40178578,27 7.44642857,27 L7.98214286,27 C8.02678565,27 8.06473221,27.0145834 8.09598214,27.04375 C8.12723207,27.0729166 8.14285714,27.1083334 8.14285714,27.15 L8.14285714,27.8 L9.85714286,27.8 L9.85714286,27.15 C9.85714286,27.1083334 9.87276793,27.0729166 9.90401786,27.04375 C9.93526779,27.0145834 9.97321435,27 10.0178571,27 L10.5535714,27 C10.5982142,27 10.6361608,27.0145834 10.6674107,27.04375 C10.6986606,27.0729166 10.7142857,27.1083334 10.7142857,27.15 L10.7142857,27.8 L11.3571429,27.8 C11.5357142,27.8 11.6875001,27.8583334 11.8125,27.975 C11.9374999,28.0916666 12,28.2333334 12,28.4 L12,28.85 Z" id="calendar-copy-2" fill="#BBD4F7"></path>
    </g>
</svg>