<?xml version="1.0" encoding="UTF-8"?>
<svg width="40px" height="40px" viewBox="0 0 40 40" version="1.1" xmlns="http://www.w3.org/2000/svg" xmlns:xlink="http://www.w3.org/1999/xlink">
    <!-- Generator: Sketch 52.5 (67469) - http://www.bohemiancoding.com/sketch -->
    <title>dish</title>
    <desc>Created with Sketch.</desc>
    <g id="Symbols" stroke="none" stroke-width="1" fill="none" fill-rule="evenodd">
        <g id="Icons/Sections/DIsh">
            <g id="dish">
                <circle id="Oval" fill="#E8F0FC" cx="20" cy="20" r="20"></circle>
                <path d="M28.6286171,13.5359457 L28.1615818,12.1067199 C27.5683306,10.4831992 25.6719089,9.61428336 23.9258006,10.1658847 C22.9435351,10.4761816 22.1721447,11.1934155 21.8384182,12.1067199 L21.3713829,13.5359457 C20.9783675,14.7412843 20.8958907,16.0156998 21.1305905,17.2561265 C21.3446484,18.3004827 22.0577502,19.1977226 23.0685689,19.6945359 L22.5455184,30.5662568 C22.4754995,31.173069 22.6871931,31.7788666 23.1274939,32.231545 C24.0743862,33.1945645 25.6817297,33.2615278 26.7174642,32.3811132 C26.7734794,32.3335118 26.8271302,32.2836275 26.8783259,32.231545 C27.3088059,31.7917182 27.5201357,31.203676 27.4603014,30.6115754 L26.934341,19.6931831 C27.9437957,19.1961162 28.6557154,18.2994681 28.8694095,17.2561265 C29.1041093,16.0156998 29.0216325,14.7412843 28.6286171,13.5359457 Z M27.4362949,17.0207405 C27.2787978,17.7710333 26.7037332,18.3866387 25.926796,18.6366517 C25.6318981,18.7397176 25.4419376,19.0075707 25.4561233,19.3001967 L26.009,30.718446 C26.0344614,30.9424178 25.9549854,31.1657132 25.7907592,31.3312612 C25.3527317,31.7344781 24.6472683,31.7344781 24.2092408,31.3312612 C24.0368306,31.1523544 23.9585367,30.9115572 23.9953648,30.6738038 L24.5438767,19.3001967 C24.5580624,19.0075707 24.3681019,18.7397176 24.073204,18.6366517 C23.2962668,18.3866387 22.7212022,17.7710333 22.5637051,17.0207405 C22.3691071,15.9909268 22.4376711,14.9329581 22.7637592,13.9323141 L23.2307945,12.5024119 C23.5921649,11.5939268 24.6771855,11.1298343 25.6543587,11.4658342 C26.1709529,11.6434729 26.5781538,12.0221703 26.7692055,12.5024119 L27.2362408,13.9323141 C27.5619652,14.9330427 27.6305292,15.9909268 27.4362949,17.0207405 Z" id="Shape" fill="#0764E3" fill-rule="nonzero"></path>
                <path d="M18.2727273,10 C17.8710909,10 17.5454545,10.3029303 17.5454545,10.6765612 L17.5454545,16.4855155 L15.5767273,18.3169666 C15.4310909,18.4519406 15.3536364,18.6380795 15.3636364,18.8291234 L16,30.6689441 C16.0151818,30.9242614 15.9155455,31.173997 15.7250909,31.3583599 C15.327,31.7319909 14.6786364,31.7346971 14.2769091,31.3642798 C14.2747273,31.3623347 14.2726364,31.3603051 14.2705455,31.3583599 C14.08,31.173997 13.9804545,30.9242614 13.9956364,30.6689441 L14.6363636,18.8291234 C14.6465455,18.638164 14.5693636,18.4521097 14.424,18.3169666 L12.4545455,16.4855155 L12.4545455,10.6765612 C12.4545455,10.3029303 12.1289091,10 11.7272727,10 C11.3256364,10 11,10.3029303 11,10.6765612 L11,16.7656118 C11,16.9450697 11.0767273,17.1170853 11.2130909,17.2439406 L13.1665455,19.0618605 L12.5461818,30.6033177 C12.4801818,31.8640049 13.5252727,32.9358469 14.8804545,32.9972448 C16.2356364,33.0586428 17.3878182,32.0864243 17.4538182,30.8257371 C17.4577273,30.7516537 17.4577273,30.6774857 17.4538182,30.6034022 L16.8334545,19.061945 L18.7869091,17.2440251 C18.9232727,17.1171699 19,16.9451542 19,16.7656964 L19,10.6766458 C19,10.3029303 18.6743636,10 18.2727273,10 Z" id="Path" fill="#0764E3"></path>
                <path d="M13.75,10 C13.3358125,10 13,10.313425 13,10.7 L13,16.3 C13,16.686575 13.3358125,17 13.75,17 C14.1641875,17 14.5,16.686575 14.5,16.3 L14.5,10.7 C14.5,10.313425 14.1641875,10 13.75,10 Z" id="Path" fill="#0764E3"></path>
                <path d="M16.25,10 C15.8358125,10 15.5,10.313425 15.5,10.7 L15.5,16.3 C15.5,16.686575 15.8358125,17 16.25,17 C16.6641875,17 17,16.686575 17,16.3 L17,10.7 C17,10.313425 16.6641875,10 16.25,10 Z" id="Path" fill="#0764E3"></path>
                <path d="M20,0 C8.95433333,0 0,8.95433333 0,20 C0,31.0456667 8.95433333,40 20,40 C31.0456667,40 40,31.0456667 40,20 C39.9875,8.9595 31.0405,0.0125 20,0 Z M20,38.6666667 C9.69066667,38.6666667 1.33333333,30.3093333 1.33333333,20 C1.33333333,9.69066667 9.69066667,1.33333333 20,1.33333333 C30.3093333,1.33333333 38.6666667,9.69066667 38.6666667,20 C38.6549167,30.3044167 30.3044167,38.6549167 20,38.6666667 Z" id="Shape" fill="#BBD4F7" fill-rule="nonzero"></path>
                <path d="M22.4966723,33.6352408 C22.4594719,33.2485582 22.1201595,32.9656476 21.7387908,33.0033749 C21.7298592,33.0042543 21.7209277,33.0053096 21.7119961,33.0065408 L21.714771,33.0058373 C20.7381097,33.1208659 19.7514763,33.1208659 18.7748151,33.0058373 C18.39414,32.9605469 18.0494514,33.2367739 18.0047936,33.6228409 C17.9601358,34.0089079 18.2325049,34.3584788 18.6131799,34.4037691 C19.6963261,34.532077 20.790485,34.532077 21.8736312,34.4037691 C22.2549133,34.3661297 22.5338726,34.0220113 22.4966723,33.6352408 Z" id="Path" fill="#BBD4F7"></path>
                <path d="M29.902347,11.2451255 C29.6686023,10.954917 29.2531475,10.916937 28.9744487,11.1604206 C28.973543,11.1611922 28.9726373,11.1620495 28.9716493,11.1628211 C28.6936092,11.4069906 28.6582058,11.8396028 28.8926092,12.1292111 C32.8639648,17.0383213 32.5601542,24.2973057 28.1937626,28.8280732 C27.9360588,29.0954765 27.9353178,29.529889 28.1921159,29.7982354 C28.4489141,30.0665818 28.8660978,30.0673534 29.1238016,29.7999501 C33.9762901,24.7662689 34.3146807,16.7002734 29.902347,11.2451255 Z" id="Path" fill="#BBD4F7"></path>
                <g id="Group" transform="translate(14.000000, 6.000000)" fill="#BBD4F7">
                    <path d="M0.720377358,2.38741111 C0.719877358,2.38741111 0.719377358,2.38731111 0.718877358,2.38731111 C0.718077358,2.38731111 0.717277358,2.38741111 0.716377358,2.38741111 L0.720377358,2.38741111 Z" id="Path"></path>
                    <path d="M8.46815094,0.414074074 C5.81357547,-0.279722222 3.02951887,-0.0932407407 0.472754717,0.94962963 C0.121584906,1.09361111 -0.0559528302,1.52083333 0.0760754717,1.9037037 C0.175584906,2.19231481 0.428603774,2.38333333 0.711254717,2.38361111 C0.792509434,2.38314815 0.873,2.36694444 0.94890566,2.33555556 C3.25137736,1.39657407 5.7584717,1.22888889 8.14890566,1.85407407 C8.51357547,1.95018519 8.88062264,1.70583333 8.96875472,1.30814815 C9.05688679,0.910462963 8.83282075,0.510185185 8.46815094,0.414074074 Z" id="Path"></path>
                </g>
                <path d="M10.805731,28.8430697 C8.57127521,26.5656255 7.31895592,23.4722163 7.32657838,20.2486215 C7.32003301,17.6731632 8.11906491,15.1628399 9.60734883,13.0834234 C9.82732287,12.7846479 9.76841457,12.3604239 9.47577866,12.1358347 C9.18314276,11.9112455 8.76763622,11.9713898 8.54766218,12.2701653 C8.5437681,12.2754945 8.53995687,12.2808237 8.5362285,12.2862376 C4.70404034,17.6652116 5.26793614,25.0898505 9.86651222,29.8013168 C10.1256756,30.0660867 10.5460705,30.0662559 10.8053996,29.8016551 C11.0647287,29.5370544 11.0648944,29.1078396 10.805731,28.8430697 Z" id="Path" fill="#BBD4F7"></path>
            </g>
        </g>
    </g>
</svg>