<?xml version="1.0" encoding="UTF-8"?>
<svg width="48px" height="40px" viewBox="0 0 48 40" version="1.1" xmlns="http://www.w3.org/2000/svg" xmlns:xlink="http://www.w3.org/1999/xlink">
    <!-- Generator: Sketch 52.1 (67048) - http://www.bohemiancoding.com/sketch -->
    <title>Icons/Sections/Maps</title>
    <desc>Created with Sketch.</desc>
    <g id="Icons/Sections/Maps" stroke="none" stroke-width="1" fill="none" fill-rule="evenodd">
        <rect id="Rectangle-" fill="#E8F0FC" x="0" y="0" width="48" height="40" rx="4"></rect>
        <g id="Group-21" fill="#0764E3">
            <path d="M44.2669614,38.5846957 L32.0442132,38.5846957 C32.2720078,38.1567536 32.4278611,37.7903768 32.4581399,37.7183768 C32.9174846,36.6191304 33.2805946,35.7509565 34.428487,34.8297971 C34.7301007,34.5874783 34.7759883,34.1491014 34.5307071,33.8510145 C34.2854259,33.5530435 33.8421594,33.5072464 33.5400763,33.750029 C32.1152156,34.8935652 31.6494161,36.0077681 31.1561545,37.1875942 C31.0058171,37.5471304 30.6977487,38.1726377 30.40658,38.5846957 L28.5971325,38.5846957 C29.0859345,38.0068406 29.380624,37.3048116 29.6814161,36.5851594 C30.2186875,35.2998261 30.8279002,33.8428986 32.6837046,32.4081159 C33.2668636,31.9569855 33.892976,31.995942 34.686091,32.0444058 C35.4154797,32.0892754 36.2420421,32.1404058 37.0649663,31.7433043 C38.2335139,31.1793623 39.2750787,31.0576232 40.0778171,31.3904928 C40.6747071,31.6376812 41.1133966,32.1327536 41.3457682,32.822029 C42.0109614,34.793971 42.7917535,35.1151304 43.9983257,35.4090435 C44.6837046,35.5761159 45.4538171,35.7649855 46.5449076,36.6223768 C46.3914015,37.7291594 45.4285848,38.5846957 44.2669614,38.5846957 Z M1.4083599,36.3121159 L1.4083599,3.66353623 C1.4083599,3.3986087 1.45506895,3.14365217 1.5399198,2.90678261 C1.85080489,2.97553623 2.47926455,3.13588406 3.14480978,3.43026087 C3.94074132,3.78226087 4.9603599,4.40498551 5.29542103,5.37275362 C5.48706895,5.92626087 5.28168998,8.40672464 4.53575355,10.885913 C4.25620342,11.8143768 4.30185623,12.5485217 4.67599804,13.130087 C5.29858973,14.0992464 6.59142103,14.2926377 7.96030122,14.4977391 C9.33927433,14.7048116 10.7654259,14.918029 11.3687707,15.8977391 C12.1806631,17.2151884 11.4709907,18.6422029 10.7851423,20.0227246 C10.7163697,20.1603478 10.6494748,20.2957681 10.5848098,20.4289855 C9.93851149,21.7590725 10.092487,22.7246377 10.335421,23.3007536 C10.6774064,24.1109565 11.4228733,24.7324058 12.4910787,25.0978551 C14.1510103,25.6653913 13.7132597,28.019942 13.5394504,28.7283478 C12.7766142,31.8369855 14.9771032,32.7953623 17.1051814,33.721971 C17.296712,33.8053333 17.491646,33.8904348 17.6892792,33.9783188 C18.772976,34.462029 19.4164577,35.3288116 19.3693966,36.2410435 C19.3179932,37.2364058 18.4730054,38.1064348 17.1056509,38.5846957 L15.0385995,38.5846957 C15.2618171,37.8963478 15.8000274,37.3555942 16.5005457,37.1246377 C16.8434699,37.0118261 17.1294748,36.8737391 17.3508147,36.7138551 C17.538355,36.5784348 17.6459736,36.3605797 17.6391667,36.1318261 C17.6323599,35.9027246 17.5121839,35.6915942 17.3170152,35.5670725 C17.2312254,35.5122319 17.1349907,35.4615652 17.0323012,35.4153043 C16.8425311,35.3306667 16.6549907,35.2491594 16.4712059,35.1689275 L16.461113,35.1648696 C15.4255335,34.7138551 14.0066582,34.0956522 13.0006533,33.0331594 C11.8464235,31.813913 11.5154699,30.2845217 11.9880763,28.3569855 C12.1366533,27.7532754 12.1421692,27.3238261 12.1204577,27.0697971 C12.0880665,26.6870725 11.7474895,26.4026667 11.3599687,26.4347826 C10.9726826,26.4670145 10.6848,26.8030145 10.7171912,27.1862029 C10.7256411,27.2857971 10.7329174,27.5675362 10.6195482,28.0294493 C9.38422298,33.0643478 12.9971325,35.1291594 15.2755482,36.1648696 C14.4704626,36.6554203 13.8801447,37.4357101 13.6370934,38.3646377 C13.6178465,38.4384928 13.6117438,38.5126957 13.6164381,38.5851594 L3.70836968,38.5851594 C2.44030122,38.5846957 1.4083599,37.5652174 1.4083599,36.3121159 Z M9.10349927,1.39130435 C9.4211912,4.27269565 10.5592254,8.46794203 12.9126337,12.3202319 C14.4241056,14.793971 16.2850738,16.8849855 18.4436655,18.5349565 C20.9996362,20.4891594 23.9867853,21.8315362 27.3213183,22.5245217 C37.1493477,24.5670725 43.621954,28.3474783 46.5669711,33.7604638 L46.5669711,34.9375072 C45.6464039,34.3777391 44.9143159,34.1993043 44.335734,34.0584348 C43.4724381,33.8478841 43.1496998,33.7690435 42.6816704,32.3822609 C42.3223159,31.3166377 41.5910494,30.5091014 40.6223648,30.1073623 C39.7940421,29.764058 38.3975824,29.5521159 36.4469516,30.4932174 C35.958267,30.7288116 35.4090249,30.6948406 34.7736411,30.6558841 C33.8577682,30.5996522 32.8198416,30.5358841 31.8153623,31.3125797 C29.6676851,32.9728696 28.9534357,34.6816232 28.3794308,36.0543768 C27.6746875,37.7391304 27.3213183,38.5846957 24.7385897,38.5846957 L19.7356753,38.5846957 C20.3649565,37.9416812 20.7317046,37.1626667 20.7757144,36.3121159 C20.8537584,34.8148406 19.8929369,33.4347826 18.2686826,32.7101449 C18.0674112,32.6205217 17.868487,32.5335652 17.6730836,32.4489275 C15.4189614,31.4670145 14.442179,30.9533913 14.9077438,29.0562319 C15.5509907,26.4357101 14.8015335,24.4153043 12.9515971,23.7826087 C12.2636362,23.5475942 11.8208391,23.2052174 11.6351765,22.7649855 C11.4430592,22.3093333 11.5164088,21.726029 11.8541692,21.0313043 C11.9170738,20.9013333 11.9826778,20.7695072 12.0491032,20.635942 C12.7816606,19.1617391 13.785201,17.1431884 12.5717046,15.1743768 C11.6263746,13.64 9.71059951,13.3528116 8.17119609,13.1223188 C7.17446259,12.9728696 6.14357751,12.8184348 5.8648489,12.3845797 C5.7240176,12.1657971 5.73141125,11.7948986 5.8853868,11.2822029 C6.54424254,9.0937971 7.01497115,6.04034783 6.62815452,4.92255072 C5.96296137,3.00278261 3.78758729,2.09646377 2.51599804,1.72104348 C2.86373399,1.51176812 3.27191002,1.39130435 3.70836968,1.39130435 L9.10349927,1.39130435 Z M46.5669711,3.66353623 L46.5669711,17.7283478 C45.1705115,17.4715362 44.773954,16.6834783 44.2907853,15.7201159 C43.884135,14.9103768 43.4238513,13.9923478 42.3382768,13.4347826 C41.1436753,12.8207536 39.9934357,12.9122319 39.0696998,12.9855072 C37.8328489,13.0838261 37.2102572,13.0906667 36.5890738,12.1793623 C36.2626973,11.7001739 36.0650641,11.1681159 35.874355,10.6531014 C35.5241545,9.70794203 35.1615139,8.73101449 34.0451912,8.22515942 C33.9356949,8.17576812 33.8279589,8.12823188 33.7219834,8.08115942 C32.4246924,7.50689855 31.7099736,7.19072464 31.4463844,5.06295652 C31.2506289,3.48417391 30.6688782,2.25055072 29.7167413,1.39130435 L44.2669614,1.39130435 C45.5354993,1.39130435 46.5669711,2.41078261 46.5669711,3.66353623 Z M25.4899247,1.39130435 C28.2368391,1.39130435 29.7281252,2.64765217 30.0486337,5.23234783 C30.4089271,8.13913043 31.7383746,8.72788406 33.1462181,9.35107246 C33.2484381,9.39628986 33.3525359,9.44208696 33.4583941,9.49008696 C34.014091,9.74191304 34.2258073,10.2518261 34.5518318,11.1313623 C34.7613183,11.6965797 34.9987364,12.3370435 35.4209956,12.9565217 C36.5299247,14.5834203 37.9391765,14.4715362 39.1824822,14.3722899 C40.0415531,14.3043478 40.852976,14.2396522 41.6886924,14.6689855 C42.3663257,15.0172754 42.6734553,15.6291014 43.0287022,16.3378551 C43.5875677,17.452058 44.2729467,18.8143768 46.5669711,19.1368116 L46.5669711,24.6621449 C42.2754895,21.0431304 36.2213868,18.4031304 28.5389222,16.8066087 C24.0527413,15.874087 20.5076655,13.3546667 18.0023941,9.31756522 C15.9887413,6.07292754 15.291509,2.88823188 15.0605457,1.39130435 L25.4899247,1.39130435 Z M13.6358024,1.39130435 C13.9552548,3.70701449 14.9234699,7.0182029 16.80169,10.0444058 C18.0273917,12.0194783 19.5191472,13.6875362 21.2365848,15.0013913 C23.2701888,16.5584928 25.6296998,17.6236522 28.2492792,18.1681159 C36.2709125,19.8352464 42.4308733,22.649971 46.5669711,26.5344928 L46.5669711,31.1586087 C43.0370347,26.404058 36.6756851,23.0467246 27.6110787,21.1631304 C21.7963892,19.9543188 17.2564577,16.7373913 14.1183844,11.6010435 C11.5104235,7.33252174 10.7425408,3.17217391 10.5234308,1.39130435 L13.6358024,1.39130435 Z M47.9752841,33.6128696 C47.9761056,33.5951304 47.9761056,33.5775072 47.9752841,33.5602319 L47.9752841,3.66353623 C47.9752841,1.6435942 46.3115971,0 44.2669614,0 L3.70836968,0 C1.66361663,0 4.69437653e-05,1.6435942 4.69437653e-05,3.66353623 L4.69437653e-05,36.3121159 C4.69437653e-05,38.3325217 1.66361663,39.976 3.70836968,39.976 L17.2255922,39.976 L17.2279394,39.976 L17.2302866,39.976 L44.2669614,39.976 C46.3051423,39.976 47.9647218,38.3424928 47.9748147,36.3311304 L47.9752841,36.3216232 C47.9752841,36.3184928 47.9757535,36.3152464 47.9757535,36.3125797 L47.9757535,33.6128696 L47.9752841,33.6128696 Z" id="Fill-1"></path>
            <path d="M23.600755,5.97191884 C23.7780851,5.91035362 23.960579,5.88090435 24.1430729,5.88090435 C24.9888822,5.88090435 25.8328137,6.51267246 26.1789066,7.48507826 C26.5997575,8.66757101 26.1271511,9.9122087 25.1259579,10.259571 C24.1251169,10.6073971 22.9680704,9.92844058 22.547689,8.74641159 C22.1268381,7.56438261 22.5994445,6.31974493 23.600755,5.97191884 M24.5909164,11.7409623 C24.9264469,11.7409623 25.2638553,11.6865855 25.5930484,11.5720348 C27.3269164,10.9701797 28.1855178,8.92983188 27.5075325,7.02362899 C26.8294298,5.11777391 24.8672978,4.0576 23.1335472,4.65945507 C21.3997966,5.26131014 20.5406083,7.30165797 21.218711,9.2073971 C21.7683051,10.7518609 23.1601878,11.7409623 24.5909164,11.7409623" id="Fill-3"></path>
            <path d="M20.0405516,25.3456696 C20.1588499,24.8493217 20.5324049,24.5221333 21.1499501,24.3740754 C21.3837301,24.3176116 21.6523658,24.2812058 21.9563267,24.2812058 C23.0390846,24.2812058 24.5661653,24.7463652 26.5278279,26.4471188 C27.4782044,27.270771 27.8700675,28.1811478 27.6940284,29.152742 C27.4566103,30.4584812 26.2517985,31.5694377 25.2382826,31.9523942 C23.9913389,32.4235826 23.6387912,31.9697855 22.8718474,30.4443362 C22.5119061,29.728858 22.1044342,28.9176116 21.4383022,28.3610899 C20.4150455,27.5060174 19.8273095,26.2377275 20.0405516,25.3456696 M20.5287667,29.4231188 C20.9725027,29.7943652 21.2971188,30.4393507 21.6107032,31.0633507 C22.148444,32.1337275 22.8461457,33.5217855 24.4254513,33.5217855 C24.8086298,33.5217855 25.2441506,33.4398145 25.7411677,33.2517565 C27.1059403,32.7363942 28.7328939,31.3106551 29.0799257,29.3985391 C29.2655883,28.3776696 29.1340284,26.8554667 27.4566103,25.4012058 C25.8190944,23.9813797 23.3375296,22.4166261 20.8171188,23.0223072 C19.6755638,23.2961623 18.9127276,24.0082783 18.6693242,25.0262493 C18.330977,26.4435246 19.0782044,28.210713 20.5287667,29.4231188" id="Fill-5"></path>
            <path d="M33.2952293,5.95477101 C33.4162269,6.20427826 33.6689017,6.35013333 33.9315521,6.35013333 C34.0333027,6.35013333 34.1369311,6.32798841 34.2350435,6.28172754 C34.585244,6.11558261 34.733821,5.70062609 34.5655276,5.3541913 C34.5645888,5.3528 34.487601,5.17981449 34.4284518,4.70248116 C34.3812733,4.32114783 34.030134,4.04984348 33.6441389,4.09645217 C33.2581438,4.14317681 32.9835227,4.49007536 33.0307012,4.8714087 C33.1045203,5.46874203 33.2154249,5.79036522 33.2952293,5.95477101" id="Fill-7"></path>
            <path d="M37.3734689,10.1114087 C37.5050289,10.4679304 37.6302513,10.8043942 37.7828186,11.0842783 C37.9112098,11.3197565 38.1647061,11.4629449 38.435689,11.4489159 C38.590134,11.4420754 38.7685203,11.4275826 38.9412733,11.4140174 C39.2874836,11.3863072 39.6793467,11.3555826 40.1071218,11.3555826 C41.2128822,11.3555826 42.1837966,11.5779594 43.075024,12.0358145 C43.3455374,12.174829 43.6022024,12.3361043 43.8373907,12.5150029 C43.9657819,12.6123942 44.1165888,12.6594667 44.2664567,12.6594667 C44.477821,12.6594667 44.6864861,12.5661333 44.8248528,12.3881623 C45.0623883,12.0838145 45.0045301,11.646829 44.6964616,11.4126261 C44.3957868,11.1838725 44.0689408,10.9783072 43.7246083,10.8012638 C42.628002,10.2377855 41.4447844,9.96427826 40.1071218,9.96427826 C39.6299384,9.96427826 39.2131951,9.99685797 38.8440998,10.0258435 C38.7969213,9.90537971 38.747865,9.77308986 38.6956401,9.63233623 C38.4338112,8.92624928 38.0381927,7.85958261 37.1937917,6.91488696 C36.9360704,6.62688696 36.4909262,6.59964058 36.1998748,6.85378551 C35.908354,7.10827826 35.8807746,7.54758261 36.1380264,7.83558261 C36.8068577,8.58387246 37.1341731,9.46653913 37.3734689,10.1114087" id="Fill-9"></path>
            <path d="M8.86206748,23.9072696 C8.71255159,23.552487 8.30003325,23.3850667 7.94150024,23.5326609 C7.5824978,23.6808348 7.41291345,24.0879072 7.56242934,24.4425739 C7.77649291,24.9502841 8.06531443,25.4257623 8.42103081,25.8550957 C8.55998435,26.0236754 8.7625467,26.1109797 8.96651736,26.1109797 C9.12330954,26.1109797 9.28104059,26.0593855 9.41166161,25.9537623 C9.71292323,25.7110957 9.75740244,25.2726029 9.5111824,24.9752116 C9.2425467,24.6499942 9.02390611,24.290342 8.86206748,23.9072696" id="Fill-11"></path>
            <path d="M8.59749242,17.6169043 C8.442578,18.0013681 8.1927198,18.5045565 8.08815257,18.7142957 C7.91669046,19.0593391 8.06069046,19.4760348 8.40995208,19.6454261 C8.50947286,19.6938899 8.61533105,19.7169623 8.71989829,19.7169623 C8.97984939,19.7169623 9.22970758,19.5738899 9.35246553,19.327513 C9.94348753,18.1381797 10.2088372,17.4877449 10.1176489,17.0099478 C10.0777467,16.8012522 9.94348753,16.6214261 9.75277848,16.5226435 C9.34565868,16.3125565 8.59244597,16.1871072 7.71999609,16.0566725 C6.78065134,15.9158029 5.71573203,15.7559188 4.78554132,15.2758029 C4.44085672,15.0973681 4.01542885,15.2291942 3.83528215,15.5697159 C3.65513545,15.9103536 3.78798631,16.3306435 4.13278826,16.5086145 C5.27152665,17.0969043 6.51201565,17.2826435 7.51097897,17.4325565 C7.72328215,17.4642087 8.20961956,17.5371362 8.59749242,17.6169043" id="Fill-13"></path>
            <path d="M3.76782396,6.01993043 C3.76195599,5.63952464 3.4479022,5.33471304 3.06413692,5.33471304 C3.06049878,5.33471304 3.05686064,5.33471304 3.05322249,5.33517681 C2.66441076,5.34108986 2.35411247,5.65714783 2.35998044,6.04126377 C2.36455746,6.3541913 2.31057213,7.05390145 2.14180929,7.9950029 C2.07397555,8.3732058 2.32934963,8.73413333 2.71205868,8.80126377 C2.75383863,8.80845217 2.79503178,8.81204638 2.83587286,8.81204638 C3.17105134,8.81204638 3.46808802,8.57471304 3.52852812,8.23732174 C3.68402934,7.37053913 3.77568704,6.52091594 3.76782396,6.01993043" id="Fill-15"></path>
            <path d="M39.8311394,33.3201971 C39.8169389,33.2776464 39.8008606,33.2368348 39.7839609,33.1988058 C39.6762249,32.960313 39.4427971,32.8015884 39.1792078,32.7870957 C39.1572616,32.7859362 39.1320293,32.7854725 39.1031589,32.7854725 C38.8473154,32.7854725 38.407687,32.8500522 37.765379,33.1598493 C37.4019169,33.3356174 37.0264841,33.4606029 36.6170171,33.5416464 C36.235599,33.6178203 35.9890269,33.9846609 36.0660147,34.3611246 C36.142533,34.7379362 36.5138582,34.982342 36.8952763,34.9058203 C37.4161174,34.8020522 37.9171247,34.6355594 38.3833936,34.4102841 C38.4980538,34.3550957 38.5983961,34.3130087 38.6854768,34.2807768 C39.1053888,35.3446609 39.6427775,36.1777043 40.3184156,36.8153855 C40.455022,36.9438493 40.6302396,37.0078493 40.8048704,37.0078493 C40.990533,37.0078493 41.1757262,36.9358493 41.3142103,36.7925449 C41.582846,36.5150957 41.5722836,36.0742841 41.2912078,35.8094725 C40.6792958,35.2315014 40.2015257,34.4175884 39.8311394,33.3201971" id="Fill-17"></path>
            <path d="M22.956088,27.5684986 C23.4512274,27.8216 24.0009389,28.2051362 24.545956,28.6779478 C24.5831589,28.7098319 24.6166064,28.7413681 24.6459462,28.7703536 C24.6353839,28.7843826 24.6238826,28.7993391 24.6115599,28.8144116 C24.2691051,28.9868174 24.1296822,29.4004986 24.3006748,29.7424116 L24.3213301,29.7831072 C24.4213203,29.9805565 24.6096822,30.119687 24.8292616,30.1581797 C24.8701027,30.1652522 24.9109438,30.1686145 24.9516675,30.1686145 C25.1305232,30.1686145 25.3042152,30.1014841 25.4362445,29.9777739 C25.6122836,29.8124406 26.0321956,29.3746435 26.1230318,28.8741217 C26.1949731,28.4787594 25.9827873,28.0724986 25.4747384,27.6323826 C24.8453399,27.0866435 24.1984548,26.6373681 23.603912,26.3330203 C23.2587579,26.1562087 22.8336822,26.289542 22.6549438,26.6309913 C22.4757359,26.9718609 22.610934,27.3918029 22.956088,27.5684986" id="Fill-19"></path>
        </g>
        <rect id="Rectangle-" stroke="#BBD4F7" stroke-width="1.5" x="0.75" y="0.75" width="46.5" height="38.5" rx="3.7"></rect>
        <path d="M11.2970599,18 C15.3846947,18 19.4474457,19.5003162 19.4474457,25.3354959 C19.4474457,29.2256157 16.7306504,33.6046692 11.2970599,38.4726562 C5.76568665,32.6570914 3,28.278038 3,25.3354959 C3,20.9216828 7.20942518,18 11.2970599,18 Z" id="Path-3" fill="#E8F0FC"></path>
        <path d="M10.9531138,34.476559 C10.4791567,33.7838524 9.86848082,32.9088545 9.1210869,31.8515652 C8.20963088,30.5390684 7.60806982,29.654956 7.31640371,29.1992278 C6.89713401,28.5429794 6.61458233,27.9915483 6.46874948,27.5449349 C6.32291663,27.0983215 6.25,26.5833485 6.25,26.0000167 C6.25,25.0521021 6.48697874,24.1771042 6.9609358,23.3750229 C7.43489287,22.5729417 8.07291246,21.9349221 8.87499374,21.460965 C9.67707502,20.9870079 10.5520729,20.7500292 11.4999875,20.7500292 C12.447902,20.7500292 13.3228999,20.9870079 14.1249812,21.460965 C14.9270625,21.9349221 15.5650821,22.5729417 16.0390392,23.3750229 C16.5129962,24.1771042 16.749975,25.0521021 16.749975,26.0000167 C16.749975,26.5833485 16.6770583,27.0983215 16.5312255,27.5449349 C16.3853926,27.9915483 16.102841,28.5429794 15.6835713,29.1992278 C15.3919051,29.654956 14.7903441,30.5390684 13.8788881,31.8515652 L12.0468612,34.476559 C11.9192572,34.6588504 11.7369662,34.7499958 11.4999875,34.7499958 C11.2630087,34.7499958 11.0807178,34.6588504 10.9531138,34.476559 Z M11.4999875,28.1875115 C12.1015485,28.1875115 12.6165211,27.9733194 13.0449057,27.5449349 C13.4732902,27.1165503 13.6874823,26.6015778 13.6874823,26.0000167 C13.6874823,25.3984556 13.4732902,24.883483 13.0449057,24.4550985 C12.6165211,24.026714 12.1015485,23.8125219 11.4999875,23.8125219 C10.8984264,23.8125219 10.3834538,24.026714 9.95506929,24.4550985 C9.52668476,24.883483 9.3124927,25.3984556 9.3124927,26.0000167 C9.3124927,26.6015778 9.52668476,27.1165503 9.95506929,27.5449349 C10.3834538,27.9733194 10.8984264,28.1875115 11.4999875,28.1875115 Z" id="map-marker-alt" fill="#0764E3"></path>
    </g>
</svg>