<?xml version="1.0" encoding="UTF-8"?>
<svg width="48px" height="40px" viewBox="0 0 48 40" version="1.1" xmlns="http://www.w3.org/2000/svg" xmlns:xlink="http://www.w3.org/1999/xlink">
    <!-- Generator: Sketch 52.1 (67048) - http://www.bohemiancoding.com/sketch -->
    <title>Icons/Sections/VideoModal</title>
    <desc>Created with Sketch.</desc>
    <g id="Icons/Sections/VideoModal" stroke="none" stroke-width="1" fill="none" fill-rule="evenodd">
        <path d="M8,0.75 C3.99593556,0.75 0.75,3.99593556 0.75,8 L0.75,32 C0.75,36.0040644 3.99593556,39.25 8,39.25 L40,39.25 C44.0040644,39.25 47.25,36.0040644 47.25,32 L47.25,8 C47.25,3.99593556 44.0040644,0.75 40,0.75 L8,0.75 Z M19.5381623,12.9022492 C20.1701656,12.4533123 21.7945427,13.2936658 26.0248082,15.7575827 C30.0716103,18.1146415 31.75,19.2047072 31.75,19.9239779 C31.75,20.6430265 30.058897,21.7444861 26.0460214,24.0854931 C21.982459,26.4560695 20.2260172,27.3634727 19.5848171,26.976302 C18.9632678,26.6009969 18.8692003,24.6093718 18.8795543,19.9269389 C18.8895385,15.4117484 18.9927138,13.2897027 19.5381623,12.9022492 Z" id="Combined-Shape" stroke="#0764E3" stroke-width="1.5" fill="#E8F0FC"></path>
        <path d="M20.0107348,13.4287958 C19.9948237,13.5115362 19.9778625,13.6282216 19.9611927,13.7738052 C19.9539537,13.8370261 19.9468409,13.9049675 19.9398641,13.9774674 C19.8616855,13.9419113 19.7889348,13.9097846 19.7218429,13.8812028 C19.5796545,13.820629 19.468032,13.7782947 19.3951203,13.7560264 C19.5127284,13.7838307 19.5936087,13.7734606 19.8050907,13.6232366 C19.9790054,13.4996981 20.0008127,13.4638711 20.0171573,13.3961468 Z M19.9398641,13.9774674 C19.9066251,14.322873 19.8764732,14.7717444 19.850471,15.3065416 C19.7897052,16.5563348 19.7541352,18.2248223 19.7503371,19.9424566 C19.7464859,21.6841125 19.7755036,23.3414886 19.833698,24.5735983 C19.8591635,25.1127629 19.8898092,25.5623171 19.9246427,25.9054628 C20.2361012,25.765638 20.6357503,25.5698425 21.108637,25.3255424 C22.202382,24.7604979 23.6484139,23.9562727 25.1448922,23.0832663 C26.6275776,22.2183063 28.0452871,21.3525455 29.0852155,20.675213 C29.5281462,20.3867207 29.8950057,20.1373365 30.1715206,19.9366407 C29.8934225,19.7353657 29.5240277,19.4849926 29.0776237,19.1950661 C28.0350423,18.5179395 26.6128913,17.6514616 25.1229088,16.7836217 C23.6251617,15.9112593 22.1760957,15.1057541 21.0830219,14.5402645 C20.6290963,14.3054311 20.2435327,14.1155778 19.9398641,13.9774674 Z M20.0032944,26.4584577 C20.0046806,26.464492 20.0060565,26.4702711 20.0074214,26.4757915 C20.0047037,26.4647991 20.0019604,26.4543903 19.998778,26.4443192 Z M19.4025523,26.1144651 C19.3975955,26.115758 19.3925812,26.1171333 19.3874778,26.1185711 C19.4025397,26.1143278 19.4194643,26.1091215 19.4381699,26.1029701 Z M30.623496,20.2909886 C30.6271917,20.294636 30.6310085,20.2983239 30.634948,20.3020918 C30.6232986,20.2909497 30.6098935,20.2786787 30.5947882,20.2653371 Z M19.3951203,13.7560264 C19.388635,13.7540457 19.3824559,13.7522238 19.3765888,13.7505618 C19.3888219,13.754027 19.4005732,13.7572026 19.4120667,13.7599314 Z" id="Path-2" stroke="#0764E3" stroke-width="1.5" fill="#0764E3"></path>
        <rect id="Rectangle-" stroke="#BBD4F7" stroke-width="1.5" x="0.75" y="0.75" width="46.5" height="38.5" rx="8"></rect>
    </g>
</svg>