<?xml version="1.0" encoding="UTF-8"?>
<svg width="48px" height="40px" viewBox="0 0 48 40" version="1.1" xmlns="http://www.w3.org/2000/svg" xmlns:xlink="http://www.w3.org/1999/xlink">
    <!-- Generator: Sketch 52.6 (67491) - http://www.bohemiancoding.com/sketch -->
    <title>Icons/Sections/Panorama</title>
    <desc>Created with Sketch.</desc>
    <defs>
        <rect id="path-1" x="0" y="0" width="44" height="36" rx="4"></rect>
    </defs>
    <g id="Icons/Sections/Panorama" stroke="none" stroke-width="1" fill="none" fill-rule="evenodd">
        <rect id="Combined-Shape" stroke="#E8F0FC" stroke-width="1.5" fill="#E8F0FC" x="0.75" y="0.75" width="46.5" height="38.5" rx="4"></rect>
        <g id="image-copy" transform="translate(24.000000, 20.000000) scale(-1, 1) translate(-24.000000, -20.000000) translate(2.000000, 2.000000)">
            <mask id="mask-2" fill="white">
                <use xlink:href="#path-1"></use>
            </mask>
            <g id="Mask"></g>
            <path d="M-2,38 L-2,30.7017544 L4,24.619883 C4.3,24.3157895 4.70000076,24.1637427 5.2,24.1637427 C5.69999924,24.1637427 6.1,24.3157895 6.4,24.619883 L12.4,30.7017544 L30.4,12.4561404 C30.7,12.1520468 31.1000008,12 31.6,12 C32.0999992,12 32.5,12.1520468 32.8,12.4561404 L46,25.8362573 L46,38 L-2,38 Z" id="image" fill="#F6FAFF" mask="url(#mask-2)"></path>
        </g>
        <path d="M37.3225806,6 C37.5107524,6 37.6706992,6.0658605 37.8024194,6.19758065 C37.9341395,6.32930079 38,6.4892476 38,6.67741935 L38,15.7096774 C38,15.8978492 37.9341395,16.057796 37.8024194,16.1895161 C37.6706992,16.3212363 37.5107524,16.3870968 37.3225806,16.3870968 L28.2903226,16.3870968 C28.1021508,16.3870968 27.942204,16.3212363 27.8104839,16.1895161 C27.6787637,16.057796 27.6129032,15.8978492 27.6129032,15.7096774 L27.6129032,15.1451613 C27.6129032,14.9569895 27.6787637,14.7970427 27.8104839,14.6653226 C27.942204,14.5336024 28.1021508,14.4677419 28.2903226,14.4677419 L34.7258065,14.4677419 C33.7096774,12.4731186 32.2419355,10.8830645 30.3225806,9.69758065 C28.4032258,8.51209677 26.2956992,7.91935484 24,7.91935484 C21.817204,7.91935484 19.7943548,8.46505405 17.9314516,9.55645161 C16.0685484,10.6478492 14.6008065,12.1155911 13.5282258,13.9596774 C12.4556452,15.8037637 11.9193548,17.817204 11.9193548,20 C11.9193548,22.182796 12.4650541,24.2056452 13.5564516,26.0685484 C14.6478492,27.9314516 16.1155911,29.3991935 17.9596774,30.4717742 C19.8037637,31.5443548 21.817204,32.0806452 24,32.0806452 C25.5430105,32.0806452 27.0013444,31.807796 28.375,31.2620968 C29.7486556,30.7163976 30.9811831,29.9543008 32.0725806,28.9758065 C32.2231186,28.8629032 32.3830645,28.8064516 32.5524194,28.8064516 C32.7217742,28.8064516 32.8817201,28.8817201 33.0322581,29.0322581 L33.4274194,29.4274194 C33.5403226,29.5403226 33.5967742,29.7002685 33.5967742,29.9072581 C33.5967742,30.1142476 33.5215057,30.2741935 33.3709677,30.3870968 C32.1290323,31.516129 30.698925,32.4005379 29.0806452,33.0403226 C27.4623653,33.6801072 25.7688169,34 24,34 C21.4784943,34 19.1451613,33.3696234 17,32.108871 C14.8548387,30.8481186 13.1518814,29.1545702 11.891129,27.0282258 C10.6303766,24.9018814 10,22.5685484 10,20.0282258 C10,17.4879032 10.6209677,15.1451613 11.8629032,13 C13.1048387,10.8548387 14.7983871,9.15188143 16.9435484,7.89112903 C19.0887097,6.63037663 21.4314516,6 23.9717742,6 C26.5120968,6 28.8548387,6.62096774 31,7.86290323 C33.1451613,9.10483871 34.8387097,10.7983871 36.0806452,12.9435484 L36.0806452,6.67741935 C36.0806452,6.4892476 36.1465057,6.32930079 36.2782258,6.19758065 C36.4099459,6.0658605 36.5698928,6 36.7580645,6 L37.3225806,6 Z" id="redo" fill="#BBD4F7"></path>
        <path d="M18.41,21.99 C19.0566699,22.0700004 19.5499983,22.2899982 19.89,22.65 C20.2300017,23.0100018 20.4,23.4599973 20.4,24 C20.4,24.4066687 20.2966677,24.776665 20.09,25.11 C19.8833323,25.443335 19.5716687,25.7083323 19.155,25.905 C18.7383312,26.1016677 18.230003,26.2 17.63,26.2 C17.1299975,26.2 16.6483356,26.128334 16.185,25.985 C15.7216643,25.8416659 15.3266683,25.6433346 15,25.39 L15.56,24.38 C15.8133346,24.5933344 16.1216648,24.7616661 16.485,24.885 C16.8483351,25.008334 17.2233314,25.07 17.61,25.07 C18.0700023,25.07 18.4316653,24.975001 18.695,24.785 C18.9583346,24.5949991 19.09,24.3366683 19.09,24.01 C19.09,23.6833317 18.9650012,23.4283342 18.715,23.245 C18.4649987,23.0616658 18.0833359,22.97 17.57,22.97 L16.93,22.97 L16.93,22.08 L18.52,20.19 L15.34,20.19 L15.34,19.1 L20.11,19.1 L20.11,19.97 L18.41,21.99 Z M24.43,21.78 C24.8900023,21.78 25.3033315,21.8683325 25.67,22.045 C26.0366685,22.2216675 26.3233323,22.4733317 26.53,22.8 C26.7366677,23.1266683 26.84,23.5033312 26.84,23.93 C26.84,24.3833356 26.7266678,24.7816649 26.5,25.125 C26.2733322,25.4683351 25.9666686,25.7333324 25.58,25.92 C25.1933314,26.1066676 24.7600024,26.2 24.28,26.2 C23.3199952,26.2 22.5750026,25.900003 22.045,25.3 C21.5149973,24.699997 21.25,23.8400056 21.25,22.72 C21.25,21.9333294 21.3933319,21.2616694 21.68,20.705 C21.9666681,20.1483306 22.3683307,19.7250015 22.885,19.435 C23.4016692,19.1449986 23.9999966,19 24.68,19 C25.0400018,19 25.3783317,19.038333 25.695,19.115 C26.0116682,19.191667 26.2866655,19.3033326 26.52,19.45 L26.04,20.43 C25.6933316,20.2033322 25.2500027,20.09 24.71,20.09 C24.0366633,20.09 23.5100019,20.2966646 23.13,20.71 C22.7499981,21.1233354 22.56,21.7199961 22.56,22.5 L22.56,22.51 C22.7666677,22.2699988 23.0299984,22.088334 23.35,21.965 C23.6700016,21.8416661 24.029998,21.78 24.43,21.78 Z M24.21,25.18 C24.6166687,25.18 24.9466654,25.0716678 25.2,24.855 C25.4533346,24.6383323 25.58,24.3500018 25.58,23.99 C25.58,23.6233315 25.4533346,23.3333344 25.2,23.12 C24.9466654,22.9066656 24.6066688,22.8 24.18,22.8 C23.7599979,22.8 23.4183346,22.9133322 23.155,23.14 C22.8916653,23.3666678 22.76,23.6533316 22.76,24 C22.76,24.3400017 22.888332,24.6216656 23.145,24.845 C23.4016679,25.0683345 23.7566644,25.18 24.21,25.18 Z M30.44,26.2 C29.8799972,26.2 29.3800022,26.0583348 28.94,25.775 C28.4999978,25.4916653 28.1533346,25.0783361 27.9,24.535 C27.6466654,23.991664 27.52,23.3466704 27.52,22.6 C27.52,21.8533296 27.6466654,21.208336 27.9,20.665 C28.1533346,20.121664 28.4999978,19.7083348 28.94,19.425 C29.3800022,19.1416652 29.8799972,19 30.44,19 C31.0000028,19 31.5016644,19.1416652 31.945,19.425 C32.3883355,19.7083348 32.7366654,20.121664 32.99,20.665 C33.2433346,21.208336 33.37,21.8533296 33.37,22.6 C33.37,23.3466704 33.2433346,23.991664 32.99,24.535 C32.7366654,25.0783361 32.3883355,25.4916653 31.945,25.775 C31.5016644,26.0583348 31.0000028,26.2 30.44,26.2 Z M30.44,25.07 C30.9400025,25.07 31.3349985,24.8633354 31.625,24.45 C31.9150014,24.0366646 32.06,23.4200041 32.06,22.6 C32.06,21.7799959 31.9150014,21.1633354 31.625,20.75 C31.3349985,20.3366646 30.9400025,20.13 30.44,20.13 C29.9466642,20.13 29.5550014,20.3366646 29.265,20.75 C28.9749985,21.1633354 28.83,21.7799959 28.83,22.6 C28.83,23.4200041 28.9749985,24.0366646 29.265,24.45 C29.5550014,24.8633354 29.9466642,25.07 30.44,25.07 Z M35.93,22.37 C35.6166651,22.37 35.3300013,22.2950007 35.07,22.145 C34.8099987,21.9949992 34.6050007,21.7933346 34.455,21.54 C34.3049992,21.2866654 34.23,21.0066682 34.23,20.7 C34.23,20.3933318 34.3049992,20.111668 34.455,19.855 C34.6050007,19.5983321 34.8099987,19.3950008 35.07,19.245 C35.3300013,19.0949993 35.6166651,19.02 35.93,19.02 C36.2433349,19.02 36.5299987,19.0949993 36.79,19.245 C37.0500013,19.3950008 37.2549992,19.5983321 37.405,19.855 C37.5550007,20.111668 37.63,20.3933318 37.63,20.7 C37.63,21.0066682 37.5550007,21.2866654 37.405,21.54 C37.2549992,21.7933346 37.0500013,21.9949992 36.79,22.145 C36.5299987,22.2950007 36.2433349,22.37 35.93,22.37 Z M35.93,21.71 C36.2166681,21.71 36.454999,21.6133343 36.645,21.42 C36.8350009,21.2266657 36.93,20.9866681 36.93,20.7 C36.93,20.4066652 36.8350009,20.1633343 36.645,19.97 C36.454999,19.7766657 36.2166681,19.68 35.93,19.68 C35.6433319,19.68 35.4033343,19.7766657 35.21,19.97 C35.0166657,20.1633343 34.92,20.4066652 34.92,20.7 C34.92,20.9866681 35.0166657,21.2266657 35.21,21.42 C35.4033343,21.6133343 35.6433319,21.71 35.93,21.71 Z" id="360°" fill="#0764E3"></path>
    </g>
</svg>