<?xml version="1.0" encoding="UTF-8"?>
<svg width="48px" height="40px" viewBox="0 0 48 40" version="1.1" xmlns="http://www.w3.org/2000/svg" xmlns:xlink="http://www.w3.org/1999/xlink">
    <!-- Generator: Sketch 52.2 (67145) - http://www.bohemiancoding.com/sketch -->
    <title>Icons/Sections/Persons Accordions</title>
    <desc>Created with Sketch.</desc>
    <g id="Icons/Sections/Persons-Accordions" stroke="none" stroke-width="1" fill="none" fill-rule="evenodd">
        <rect id="Combined-Shape" stroke="#E8F0FC" stroke-width="1.5" fill="#E8F0FC" x="0.75" y="10.75" width="46.5" height="18.5" rx="4"></rect>
        <rect id="Combined-Shape" stroke="#E8F0FC" stroke-width="1.5" fill="#E8F0FC" x="0.75" y="0.75" width="46.5" height="4.5" rx="2.25"></rect>
        <rect id="Combined-Shape" stroke="#E8F0FC" stroke-width="1.5" fill="#E8F0FC" x="0.75" y="34.75" width="46.5" height="4.5" rx="2.25"></rect>
        <rect id="Rectangle" fill="#0764E3" x="17" y="16" width="9" height="3" rx="1.5"></rect>
        <rect id="Rectangle" fill="#0764E3" x="17" y="22" width="23" height="2" rx="1"></rect>
        <rect id="Rectangle" fill="#BBD4F7" x="18" y="36" width="23" height="2" rx="1"></rect>
        <rect id="Rectangle" fill="#BBD4F7" x="18" y="2" width="23" height="2" rx="1"></rect>
        <rect id="Rectangle" fill="#BBD4F7" x="6" y="36" width="6" height="2" rx="1"></rect>
        <rect id="Rectangle" fill="#BBD4F7" x="6" y="2" width="6" height="2" rx="1"></rect>
        <path d="M9,20 C8.63541675,20 8.29947925,19.9114583 7.9921875,19.734375 C7.68489575,19.5572917 7.44270825,19.3151042 7.265625,19.0078125 C7.08854175,18.7005208 7,18.3645833 7,18 C7,17.6354167 7.08854175,17.2994792 7.265625,16.9921875 C7.44270825,16.6848958 7.68489575,16.4427083 7.9921875,16.265625 C8.29947925,16.0885417 8.63541675,16 9,16 C9.36458325,16 9.70052075,16.0885417 10.0078125,16.265625 C10.3151042,16.4427083 10.5572917,16.6848958 10.734375,16.9921875 C10.9114583,17.2994792 11,17.6354167 11,18 C11,18.3645833 10.9114583,18.7005208 10.734375,19.0078125 C10.5572917,19.3151042 10.3151042,19.5572917 10.0078125,19.734375 C9.70052075,19.9114583 9.36458325,20 9,20 Z M10.2053571,21 C10.5267857,21 10.8258928,21.0803571 11.1026786,21.2410714 C11.3794644,21.4017857 11.5982143,21.6205356 11.7589286,21.8973214 C11.9196429,22.1741072 12,22.4732143 12,22.7946429 L12,23.3571429 C12,23.5357142 11.9374999,23.6875001 11.8125,23.8125 C11.6875001,23.9374999 11.5357142,24 11.3571429,24 L6.64285714,24 C6.46428578,24 6.31249993,23.9374999 6.1875,23.8125 C6.06250007,23.6875001 6,23.5357142 6,23.3571429 L6,22.7946429 C6,22.4732143 6.08035714,22.1741072 6.24107143,21.8973214 C6.40178571,21.6205356 6.62053565,21.4017857 6.89732143,21.2410714 C7.17410721,21.0803571 7.47321429,21 7.79464286,21 L8.02232143,21 C8.33482136,21.1428572 8.66071435,21.2142857 9,21.2142857 C9.33928565,21.2142857 9.66517864,21.1428572 9.97767857,21 L10.2053571,21 Z" id="user" fill="#0764E3"></path>
    </g>
</svg>