<?xml version="1.0" encoding="UTF-8"?>
<svg width="48px" height="40px" viewBox="0 0 48 40" version="1.1" xmlns="http://www.w3.org/2000/svg" xmlns:xlink="http://www.w3.org/1999/xlink">
    <!-- Generator: Sketch 52.1 (67048) - http://www.bohemiancoding.com/sketch -->
    <title>Icons/Sections/Team</title>
    <desc>Created with Sketch.</desc>
    <g id="Icons/Sections/Team" stroke="none" stroke-width="1" fill="none" fill-rule="evenodd">
        <path d="M20.6399735,13.4169985 C20.6240624,13.4997389 20.6071012,13.6164243 20.5904314,13.7620079 C20.5831924,13.8252288 20.5760796,13.8931702 20.5691028,13.9656701 C20.4909242,13.9301139 20.4181735,13.8979873 20.3510816,13.8694054 C20.2088932,13.8088317 20.0972707,13.7664974 20.024359,13.7442291 C20.1419671,13.7720334 20.2228474,13.7616633 20.4343294,13.6114393 C20.6082441,13.4879008 20.6300514,13.4520738 20.646396,13.3843494 Z M20.5691028,13.9656701 C20.5358638,14.3110757 20.5057119,14.7599471 20.4797097,15.2947442 C20.4189439,16.5445375 20.3833739,18.213025 20.3795758,19.9306593 C20.3757246,21.6723152 20.4047423,23.3296913 20.4629367,24.561801 C20.4884022,25.1009656 20.5190479,25.5505198 20.5538814,25.8936655 C20.8653399,25.7538407 21.264989,25.5580452 21.7378757,25.3137451 C22.8316207,24.7487006 24.2776526,23.9444754 25.7741309,23.071469 C27.2568163,22.206509 28.6745258,21.3407482 29.7144542,20.6634156 C30.1573849,20.3749233 30.5242444,20.1255392 30.8007593,19.9248434 C30.5226612,19.7235684 30.1532664,19.4731953 29.7068624,19.1832688 C28.664281,18.5061422 27.24213,17.6396643 25.7521475,16.7718244 C24.2544004,15.899462 22.8053344,15.0939568 21.7122606,14.5284672 C21.258335,14.2936338 20.8727714,14.1037805 20.5691028,13.9656701 Z M20.6325331,26.4466603 C20.6339192,26.4526947 20.6352952,26.4584738 20.6366601,26.4639942 C20.6339424,26.4530018 20.6311991,26.4425929 20.6280167,26.4325219 Z M20.031791,26.1026678 C20.0268342,26.1039606 20.0218199,26.105336 20.0167165,26.1067737 C20.0317784,26.1025305 20.048703,26.0973242 20.0674086,26.0911728 Z M31.2527347,20.2791913 C31.2564304,20.2828386 31.2602472,20.2865266 31.2641867,20.2902945 C31.2525373,20.2791524 31.2391322,20.2668814 31.2240269,20.2535398 Z M20.024359,13.7442291 C20.0178737,13.7422484 20.0116946,13.7404264 20.0058275,13.7387645 C20.0180606,13.7422297 20.0298119,13.7454053 20.0413054,13.7481341 Z" id="Combined-Shape" stroke="#0764E3" stroke-width="1.5" fill="#E8F0FC"></path>
        <rect id="Rectangle-" fill="#E8F0FC" x="0" y="0" width="48" height="40" rx="4"></rect>
        <rect id="Rectangle-11" fill="#BBD4F7" x="8" y="31" width="29" height="2" rx="1"></rect>
        <rect id="Rectangle-11" fill="#BBD4F7" x="8" y="26" width="23" height="3" rx="1.5"></rect>
        <path d="M14.1249854,13.7500125 C13.4869662,13.7500125 12.899077,13.5950648 12.3613177,13.2851699 C11.8235585,12.9752749 11.3997313,12.5514478 11.0898364,12.0136885 C10.7799414,11.4759293 10.6249937,10.88804 10.6249937,10.2500209 C10.6249937,9.61200169 10.7799414,9.02411247 11.0898364,8.48635319 C11.3997313,7.94859392 11.8235585,7.5247668 12.3613177,7.21487185 C12.899077,6.90497689 13.4869662,6.75002921 14.1249854,6.75002921 C14.7630046,6.75002921 15.3508938,6.90497689 15.8886531,7.21487185 C16.4264123,7.5247668 16.8502395,7.94859392 17.1601344,8.48635319 C17.4700294,9.02411247 17.6249771,9.61200169 17.6249771,10.2500209 C17.6249771,10.88804 17.4700294,11.4759293 17.1601344,12.0136885 C16.8502395,12.5514478 16.4264123,12.9752749 15.8886531,13.2851699 C15.3508938,13.5950648 14.7630046,13.7500125 14.1249854,13.7500125 Z M16.585917,14.6250104 C17.2421655,14.6250104 17.852841,14.7890725 18.4179439,15.1171968 C18.9830469,15.445321 19.4296602,15.8919344 19.7577845,16.4570373 C20.0859087,17.0221403 20.2499708,17.6328158 20.2499708,18.2890642 L20.2499708,19.437499 C20.2499708,19.8020813 20.1223668,20.1119767 19.8671592,20.3671842 C19.6119516,20.6223918 19.3020562,20.7499958 18.9374739,20.7499958 L9.31249687,20.7499958 C8.94791455,20.7499958 8.63801917,20.6223918 8.38281159,20.3671842 C8.127604,20.1119767 8,19.8020813 8,19.437499 L8,18.2890642 C8,17.6328158 8.16406211,17.0221403 8.49218633,16.4570373 C8.82031054,15.8919344 9.26692392,15.445321 9.83202688,15.1171968 C10.3971298,14.7890725 11.0078053,14.6250104 11.6640538,14.6250104 L12.1288964,14.6250104 C12.7669156,14.9166765 13.4322789,15.0625094 14.1249854,15.0625094 C14.8176919,15.0625094 15.4830552,14.9166765 16.1210744,14.6250104 L16.585917,14.6250104 Z" id="user" fill="#0764E3"></path>
    </g>
</svg>