<?xml version="1.0" encoding="UTF-8"?>
<svg width="48px" height="40px" viewBox="0 0 48 40" version="1.1" xmlns="http://www.w3.org/2000/svg" xmlns:xlink="http://www.w3.org/1999/xlink">
    <!-- Generator: Sketch 52.1 (67048) - http://www.bohemiancoding.com/sketch -->
    <title>Icons/Sections/PhotoBox</title>
    <desc>Created with Sketch.</desc>
    <defs>
        <rect id="path-1" x="0" y="0" width="32" height="18" rx="2"></rect>
    </defs>
    <g id="Icons/Sections/PhotoBox" stroke="none" stroke-width="1" fill="none" fill-rule="evenodd">
        <rect id="Combined-Shape" stroke="#BBD4F7" stroke-width="1.5" fill="#E8F0FC" x="0.75" y="0.75" width="46.5" height="38.5" rx="4"></rect>
        <rect id="Rectangle-11" fill="#0764E3" x="8" y="29" width="25" height="3" rx="1.5"></rect>
        <rect id="Rectangle-15" fill="#E8F0FC" x="8" y="8" width="32" height="18" rx="2"></rect>
        <g id="image" transform="translate(8.000000, 8.000000)">
            <mask id="mask-2" fill="white">
                <use xlink:href="#path-1"></use>
            </mask>
            <g id="Mask"></g>
            <path d="M37.1248876,-9.99990702 C38.4790506,-9.99990702 39.6300905,-9.5259493 40.5780044,-8.57803541 C41.5259183,-7.63012152 41.999876,-6.47908156 41.999876,-5.12491864 L41.999876,24.1250116 C41.999876,25.4791745 41.5259183,26.6302145 40.5780044,27.5781284 C39.6300905,28.5260423 38.4790506,29 37.1248876,29 L-5.12501162,29 C-6.47917454,29 -7.6302145,28.5260423 -8.57812839,27.5781284 C-9.52604228,26.6302145 -10,25.4791745 -10,24.1250116 L-10,-5.12491864 C-10,-6.47908156 -9.52604228,-7.63012152 -8.57812839,-8.57803541 C-7.6302145,-9.5259493 -6.47917454,-9.99990702 -5.12501162,-9.99990702 L37.1248876,-9.99990702 Z M36.5155141,24.1250116 C36.6509299,24.1250116 36.7863473,24.0573029 36.9217631,23.9218871 C37.057179,23.7864713 37.1248876,23.6510539 37.1248876,23.5156381 L37.1248876,-4.51554509 C37.1248876,-4.65096092 37.057179,-4.7863783 36.9217631,-4.92179412 C36.7863473,-5.05720995 36.6509299,-5.12491864 36.5155141,-5.12491864 L-4.51563808,-5.12491864 C-4.6510539,-5.12491864 -4.78647128,-5.05720995 -4.92188711,-4.92179412 C-5.05730293,-4.7863783 -5.12501162,-4.65096092 -5.12501162,-4.51554509 L-5.12501162,23.5156381 C-5.12501162,23.6510539 -5.05730293,23.7864713 -4.92188711,23.9218871 C-4.78647128,24.0573029 -4.6510539,24.1250116 -4.51563808,24.1250116 L36.5155141,24.1250116 Z M2.99996901,-1.06242833 C4.15100741,-1.06242833 5.11584886,-0.673106854 5.89449335,0.10553764 C6.67313785,0.884182133 7.06245932,1.84902358 7.06245932,3.00006199 C7.06245932,4.15110039 6.67313785,5.11594184 5.89449335,5.89458634 C5.11584886,6.67323083 4.15100741,7.0625523 2.99996901,7.0625523 C1.8489306,7.0625523 0.88408915,6.67323083 0.105444657,5.89458634 C-0.673199837,5.11594184 -1.06252131,4.15110039 -1.06252131,3.00006199 C-1.06252131,1.84902358 -0.673199837,0.884182133 0.105444657,0.10553764 C0.88408915,-0.673106854 1.8489306,-1.06242833 2.99996901,-1.06242833 Z M-0.250023246,19.2500232 L-0.250023246,14.3750349 L3.81246707,10.3125446 C4.01559158,10.10942 4.28642479,10.0078578 4.62496513,10.0078578 C4.96350547,10.0078578 5.23433868,10.10942 5.43746319,10.3125446 L9.49995351,14.3750349 L21.6874245,2.18756393 C21.890549,1.98443941 22.1613822,1.88287715 22.4999225,1.88287715 C22.8384629,1.88287715 23.1092961,1.98443941 23.3124206,2.18756393 L32.2498993,11.1250426 L32.2498993,19.2500232 L-0.250023246,19.2500232 Z" fill="#BBD4F7" mask="url(#mask-2)"></path>
        </g>
    </g>
</svg>