<?xml version="1.0" encoding="utf-8"?>
<!-- Generator: Adobe Illustrator 22.1.0, SVG Export Plug-In . SVG Version: 6.00 Build 0)  -->
<svg version="1.1" id="Layer_1" xmlns="http://www.w3.org/2000/svg" xmlns:xlink="http://www.w3.org/1999/xlink" x="0px" y="0px"
	 viewBox="0 0 48 40" style="enable-background:new 0 0 48 40;" xml:space="preserve">
<style type="text/css">
	.st0{fill:none;stroke:#E8F0FC;stroke-width:3;}
	.st1{fill:none;}
	.st2{fill:#0764E3;}
</style>
<title>Icons/Sections/PieCharts</title>
<desc>Created with Sketch.</desc>
<g id="Icons_x2F_Sections_x2F_PieCharts">
	<g id="Oval">
		<circle class="st0" cx="20.2" cy="20" r="18.5"/>
		<circle class="st1" cx="20.2" cy="20" r="18.5"/>
	</g>
</g>
<path class="st2" d="M37.9,29.6c-5.2,9.7-17.4,13.2-27.2,8C4.2,34,0.3,27.2,0.2,20.2h0c0-0.8,0.7-1.5,1.5-1.5s1.5,0.7,1.5,1.5
	c0.1,5.7,3.2,11.3,8.6,14.3c8.1,4.6,18.5,1.9,23.1-6.2c4.6-8.1,1.7-18.4-6.4-23C26,3.9,23.2,3.1,20.5,3C19.7,3,19,2.4,19,1.5
	C19,0.7,19.7,0,20.5,0c3.1,0.1,6.3,0.8,9.2,2.4C39.5,7.8,43.2,19.9,37.9,29.6z"/>
</svg>
