<?xml version="1.0" encoding="UTF-8"?>
<svg width="48px" height="40px" viewBox="0 0 48 40" version="1.1" xmlns="http://www.w3.org/2000/svg" xmlns:xlink="http://www.w3.org/1999/xlink">
    <!-- Generator: Sketch 52.2 (67145) - http://www.bohemiancoding.com/sketch -->
    <title>Icons/Sections/BlogPost</title>
    <desc>Created with Sketch.</desc>
    <defs>
        <rect id="path-1" x="0" y="0" width="44" height="17" rx="4"></rect>
    </defs>
    <g id="Icons/Sections/BlogPost" stroke="none" stroke-width="1" fill="none" fill-rule="evenodd">
        <rect id="Combined-Shape" stroke="#E8F0FC" stroke-width="1.5" fill="#E8F0FC" x="0.75" y="0.75" width="46.5" height="38.5" rx="4"></rect>
        <rect id="Rectangle-11" fill="#0764E3" x="4" y="26" width="28" height="3" rx="1.5"></rect>
        <rect id="Rectangle-11" fill="#BBD4F7" x="4" y="22" width="6" height="2" rx="1"></rect>
        <rect id="Rectangle-11" fill="#BBD4F7" x="4" y="31" width="40" height="2" rx="1"></rect>
        <rect id="Rectangle-11" fill="#BBD4F7" x="4" y="34" width="20" height="2" rx="1"></rect>
        <rect id="Rectangle-11" fill="#BBD4F7" x="12" y="22" width="6" height="2" rx="1"></rect>
        <g id="image" transform="translate(2.000000, 2.000000)">
            <mask id="mask-2" fill="white">
                <use xlink:href="#path-1"></use>
            </mask>
            <use id="Mask" fill="#FFFFFF" xlink:href="#path-1"></use>
            <path d="M54.1873315,-17.4998605 C56.2185759,-17.4998605 57.9451358,-16.7889239 59.3670066,-15.3670531 C60.7888775,-13.9451823 61.499814,-12.2186223 61.499814,-10.187378 L61.499814,33.6875174 C61.499814,35.7187618 60.7888775,37.4453217 59.3670066,38.8671926 C57.9451358,40.2890634 56.2185759,41 54.1873315,41 L-9.18751743,41 C-11.2187618,41 -12.9453217,40.2890634 -14.3671926,38.8671926 C-15.7890634,37.4453217 -16.5,35.7187618 -16.5,33.6875174 L-16.5,-10.187378 C-16.5,-12.2186223 -15.7890634,-13.9451823 -14.3671926,-15.3670531 C-12.9453217,-16.7889239 -11.2187618,-17.4998605 -9.18751743,-17.4998605 L54.1873315,-17.4998605 Z M53.2732711,33.6875174 C53.4763949,33.6875174 53.679521,33.5859544 53.8826447,33.3828307 C54.0857684,33.1797069 54.1873315,32.9765809 54.1873315,32.7734571 L54.1873315,-9.27331764 C54.1873315,-9.47644138 54.0857684,-9.67956745 53.8826447,-9.88269119 C53.679521,-10.0858149 53.4763949,-10.187378 53.2732711,-10.187378 L-8.27345711,-10.187378 C-8.47658085,-10.187378 -8.67970692,-10.0858149 -8.88283066,-9.88269119 C-9.0859544,-9.67956745 -9.18751743,-9.47644138 -9.18751743,-9.27331764 L-9.18751743,32.7734571 C-9.18751743,32.9765809 -9.0859544,33.1797069 -8.88283066,33.3828307 C-8.67970692,33.5859544 -8.47658085,33.6875174 -8.27345711,33.6875174 L53.2732711,33.6875174 Z M2.99995351,-4.09364249 C4.72651112,-4.09364249 6.17377329,-3.50966028 7.34174003,-2.34169354 C8.50970677,-1.1737268 9.09368898,0.273535375 9.09368898,2.00009298 C9.09368898,3.72665059 8.50970677,5.17391277 7.34174003,6.34187951 C6.17377329,7.50984625 4.72651112,8.09382845 2.99995351,8.09382845 C1.2733959,8.09382845 -0.173866275,7.50984625 -1.34183301,6.34187951 C-2.50979976,5.17391277 -3.09378196,3.72665059 -3.09378196,2.00009298 C-3.09378196,0.273535375 -2.50979976,-1.1737268 -1.34183301,-2.34169354 C-0.173866275,-3.50966028 1.2733959,-4.09364249 2.99995351,-4.09364249 Z M-1.87503487,26.3750349 L-1.87503487,19.0625523 L4.2187006,12.9688168 C4.52338738,12.6641301 4.92963718,12.5117867 5.4374477,12.5117867 C5.94525821,12.5117867 6.35150802,12.6641301 6.65619479,12.9688168 L12.7499303,19.0625523 L31.0311367,0.781345889 C31.3358235,0.476659115 31.7420733,0.324315729 32.2498838,0.324315729 C32.7576943,0.324315729 33.1639441,0.476659115 33.4686309,0.781345889 L46.8748489,14.1875639 L46.8748489,26.3750349 L-1.87503487,26.3750349 Z" fill="#E8F0FC" mask="url(#mask-2)"></path>
        </g>
    </g>
</svg>