<?xml version="1.0" encoding="UTF-8"?>
<svg width="48px" height="40px" viewBox="0 0 48 40" version="1.1" xmlns="http://www.w3.org/2000/svg" xmlns:xlink="http://www.w3.org/1999/xlink">
    <!-- Generator: Sketch 52.1 (67048) - http://www.bohemiancoding.com/sketch -->
    <title>Icons/Sections/Prices</title>
    <desc>Created with Sketch.</desc>
    <g id="Icons/Sections/Prices" stroke="none" stroke-width="1" fill="none" fill-rule="evenodd">
        <rect id="Rectangle-" fill="#E8F0FC" x="26" y="0" width="22" height="40" rx="4"></rect>
        <rect id="Rectangle-" fill="#E8F0FC" x="0" y="0" width="22" height="40" rx="4"></rect>
        <rect id="Rectangle-11" fill="#BBD4F7" x="8" y="23" width="10" height="2" rx="1"></rect>
        <rect id="Rectangle-11" fill="#BBD4F7" x="8" y="27" width="10" height="2" rx="1"></rect>
        <rect id="Rectangle-11" fill="#BBD4F7" x="8" y="19" width="10" height="2" rx="1"></rect>
        <rect id="Rectangle-11" fill="#BBD4F7" x="4" y="27" width="2" height="2" rx="1"></rect>
        <rect id="Rectangle-11" fill="#BBD4F7" x="4" y="23" width="2" height="2" rx="1"></rect>
        <rect id="Rectangle-11" fill="#BBD4F7" x="4" y="19" width="2" height="2" rx="1"></rect>
        <rect id="Rectangle-11" fill="#0764E3" x="4" y="33" width="8" height="2" rx="1"></rect>
        <rect id="Rectangle-11" fill="#0764E3" x="30" y="33" width="8" height="2" rx="1"></rect>
        <path d="M7.48,15.2 C7.3999996,15.2 7.33200028,15.1740003 7.276,15.122 C7.21999972,15.0699997 7.192,15.0000004 7.192,14.912 L7.192,14.072 C6.61599712,14.0159997 6.12200206,13.8760011 5.71,13.652 C5.29799794,13.4279989 4.98600106,13.1540016 4.774,12.83 C4.56199894,12.5059984 4.44800008,12.1600018 4.432,11.792 C4.432,11.7279997 4.45799974,11.6700003 4.51,11.618 C4.56200026,11.5659997 4.62399964,11.54 4.696,11.54 L5.776,11.54 C5.87200048,11.54 5.94599974,11.5579998 5.998,11.594 C6.05000026,11.6300002 6.09999976,11.6879996 6.148,11.768 C6.23600044,12.0400014 6.42199858,12.2679991 6.706,12.452 C6.99000142,12.6360009 7.37999752,12.728 7.876,12.728 C8.42800276,12.728 8.84599858,12.6340009 9.13,12.446 C9.41400142,12.2579991 9.556,12.0000016 9.556,11.672 C9.556,11.4559989 9.48400072,11.2760007 9.34,11.132 C9.19599928,10.9879993 8.97800146,10.8620005 8.686,10.754 C8.39399854,10.6459995 7.96400284,10.5160008 7.396,10.364 C6.45199528,10.1399989 5.7600022,9.84400184 5.32,9.476 C4.8799978,9.10799816 4.66,8.58000344 4.66,7.892 C4.66,7.26799688 4.88599774,6.74000216 5.338,6.308 C5.79000226,5.87599784 6.40799608,5.61200048 7.192,5.516 L7.192,4.688 C7.192,4.59999956 7.21999972,4.53000026 7.276,4.478 C7.33200028,4.42599974 7.3999996,4.4 7.48,4.4 L8.224,4.4 C8.31200044,4.4 8.38199974,4.42599974 8.434,4.478 C8.48600026,4.53000026 8.512,4.59999956 8.512,4.688 L8.512,5.54 C9.0320026,5.61200036 9.47799814,5.76599882 9.85,6.002 C10.2220019,6.23800118 10.505999,6.51199844 10.702,6.824 C10.898001,7.13600156 11.0039999,7.43999852 11.02,7.736 C11.02,7.80800036 10.9960002,7.86799976 10.948,7.916 C10.8999998,7.96400024 10.8400004,7.988 10.768,7.988 L9.628,7.988 C9.45999916,7.988 9.34400032,7.91600072 9.28,7.772 C9.23199976,7.51599872 9.07400134,7.30200086 8.806,7.13 C8.53799866,6.95799914 8.204002,6.872 7.804,6.872 C7.3639978,6.872 7.01800126,6.95599916 6.766,7.124 C6.51399874,7.29200084 6.388,7.5359984 6.388,7.856 C6.388,8.07200108 6.44999938,8.25199928 6.574,8.396 C6.69800062,8.54000072 6.89799862,8.66799944 7.174,8.78 C7.45000138,8.89200056 7.84399744,9.01199936 8.356,9.14 C9.06800356,9.3000008 9.6339979,9.479999 10.054,9.68 C10.4740021,9.880001 10.783999,10.1319985 10.984,10.436 C11.184001,10.7400015 11.284,11.1279976 11.284,11.6 C11.284,12.2960035 11.0340025,12.8599978 10.534,13.292 C10.0339975,13.7240022 9.36000424,13.9839996 8.512,14.072 L8.512,14.912 C8.512,15.0000004 8.48600026,15.0699997 8.434,15.122 C8.38199974,15.1740003 8.31200044,15.2 8.224,15.2 L7.48,15.2 Z" id="$" fill="#0764E3"></path>
        <path d="M33.48,15.2 C33.3999996,15.2 33.3320003,15.1740003 33.276,15.122 C33.2199997,15.0699997 33.192,15.0000004 33.192,14.912 L33.192,14.072 C32.6159971,14.0159997 32.1220021,13.8760011 31.71,13.652 C31.2979979,13.4279989 30.9860011,13.1540016 30.774,12.83 C30.5619989,12.5059984 30.4480001,12.1600018 30.432,11.792 C30.432,11.7279997 30.4579997,11.6700003 30.51,11.618 C30.5620003,11.5659997 30.6239996,11.54 30.696,11.54 L31.776,11.54 C31.8720005,11.54 31.9459997,11.5579998 31.998,11.594 C32.0500003,11.6300002 32.0999998,11.6879996 32.148,11.768 C32.2360004,12.0400014 32.4219986,12.2679991 32.706,12.452 C32.9900014,12.6360009 33.3799975,12.728 33.876,12.728 C34.4280028,12.728 34.8459986,12.6340009 35.13,12.446 C35.4140014,12.2579991 35.556,12.0000016 35.556,11.672 C35.556,11.4559989 35.4840007,11.2760007 35.34,11.132 C35.1959993,10.9879993 34.9780015,10.8620005 34.686,10.754 C34.3939985,10.6459995 33.9640028,10.5160008 33.396,10.364 C32.4519953,10.1399989 31.7600022,9.84400184 31.32,9.476 C30.8799978,9.10799816 30.66,8.58000344 30.66,7.892 C30.66,7.26799688 30.8859977,6.74000216 31.338,6.308 C31.7900023,5.87599784 32.4079961,5.61200048 33.192,5.516 L33.192,4.688 C33.192,4.59999956 33.2199997,4.53000026 33.276,4.478 C33.3320003,4.42599974 33.3999996,4.4 33.48,4.4 L34.224,4.4 C34.3120004,4.4 34.3819997,4.42599974 34.434,4.478 C34.4860003,4.53000026 34.512,4.59999956 34.512,4.688 L34.512,5.54 C35.0320026,5.61200036 35.4779981,5.76599882 35.85,6.002 C36.2220019,6.23800118 36.505999,6.51199844 36.702,6.824 C36.898001,7.13600156 37.0039999,7.43999852 37.02,7.736 C37.02,7.80800036 36.9960002,7.86799976 36.948,7.916 C36.8999998,7.96400024 36.8400004,7.988 36.768,7.988 L35.628,7.988 C35.4599992,7.988 35.3440003,7.91600072 35.28,7.772 C35.2319998,7.51599872 35.0740013,7.30200086 34.806,7.13 C34.5379987,6.95799914 34.204002,6.872 33.804,6.872 C33.3639978,6.872 33.0180013,6.95599916 32.766,7.124 C32.5139987,7.29200084 32.388,7.5359984 32.388,7.856 C32.388,8.07200108 32.4499994,8.25199928 32.574,8.396 C32.6980006,8.54000072 32.8979986,8.66799944 33.174,8.78 C33.4500014,8.89200056 33.8439974,9.01199936 34.356,9.14 C35.0680036,9.3000008 35.6339979,9.479999 36.054,9.68 C36.4740021,9.880001 36.783999,10.1319985 36.984,10.436 C37.184001,10.7400015 37.284,11.1279976 37.284,11.6 C37.284,12.2960035 37.0340025,12.8599978 36.534,13.292 C36.0339975,13.7240022 35.3600042,13.9839996 34.512,14.072 L34.512,14.912 C34.512,15.0000004 34.4860003,15.0699997 34.434,15.122 C34.3819997,15.1740003 34.3120004,15.2 34.224,15.2 L33.48,15.2 Z" id="$" fill="#0764E3"></path>
        <rect id="Rectangle-11" fill="#BBD4F7" x="34" y="23" width="10" height="2" rx="1"></rect>
        <rect id="Rectangle-11" fill="#BBD4F7" x="34" y="27" width="10" height="2" rx="1"></rect>
        <rect id="Rectangle-11" fill="#BBD4F7" x="34" y="19" width="10" height="2" rx="1"></rect>
        <rect id="Rectangle-11" fill="#BBD4F7" x="30" y="27" width="2" height="2" rx="1"></rect>
        <rect id="Rectangle-11" fill="#BBD4F7" x="30" y="23" width="2" height="2" rx="1"></rect>
        <rect id="Rectangle-11" fill="#BBD4F7" x="30" y="19" width="2" height="2" rx="1"></rect>
    </g>
</svg>