<?xml version="1.0" encoding="UTF-8"?>
<svg width="48px" height="40px" viewBox="0 0 48 40" version="1.1" xmlns="http://www.w3.org/2000/svg" xmlns:xlink="http://www.w3.org/1999/xlink">
    <!-- Generator: Sketch 52.1 (67048) - http://www.bohemiancoding.com/sketch -->
    <title>Icons/Sections/Process</title>
    <desc>Created with Sketch.</desc>
    <g id="Icons/Sections/Process" stroke="none" stroke-width="1" fill="none" fill-rule="evenodd">
        <rect id="Rectangle-" fill="#E8F0FC" x="26" y="0" width="22" height="40" rx="4"></rect>
        <rect id="Rectangle-" fill="#E8F0FC" x="0" y="0" width="22" height="40" rx="4"></rect>
        <path d="M5,22 L17,22 C17.5522847,22 18,22.4477153 18,23 L18,23 C18,23.5522847 17.5522847,24 17,24 L5,24 C4.44771525,24 4,23.5522847 4,23 L4,23 C4,22.4477153 4.44771525,22 5,22 Z" id="Rectangle-11" fill="#BBD4F7"></path>
        <path d="M31,22 L43,22 C43.5522847,22 44,22.4477153 44,23 L44,23 C44,23.5522847 43.5522847,24 43,24 L31,24 C30.4477153,24 30,23.5522847 30,23 L30,23 C30,22.4477153 30.4477153,22 31,22 Z" id="Rectangle-11" fill="#BBD4F7"></path>
        <path d="M5,18 L17,18 C17.5522847,18 18,18.4477153 18,19 L18,19 C18,19.5522847 17.5522847,20 17,20 L5,20 C4.44771525,20 4,19.5522847 4,19 L4,19 C4,18.4477153 4.44771525,18 5,18 Z" id="Rectangle-11" fill="#BBD4F7"></path>
        <path d="M31,18 L43,18 C43.5522847,18 44,18.4477153 44,19 L44,19 C44,19.5522847 43.5522847,20 43,20 L31,20 C30.4477153,20 30,19.5522847 30,19 L30,19 C30,18.4477153 30.4477153,18 31,18 Z" id="Rectangle-11" fill="#BBD4F7"></path>
        <rect id="Rectangle-11" fill="#BBD4F7" x="4" y="26" width="13" height="2" rx="1"></rect>
        <rect id="Rectangle-11" fill="#0764E3" x="4" y="33" width="8" height="2" rx="1"></rect>
        <rect id="Rectangle-11" fill="#0764E3" x="30" y="33" width="8" height="2" rx="1"></rect>
        <path d="M31,26 L42,26 C42.5522847,26 43,26.4477153 43,27 L43,27 C43,27.5522847 42.5522847,28 42,28 L31,28 C30.4477153,28 30,27.5522847 30,27 L30,27 C30,26.4477153 30.4477153,26 31,26 Z" id="Rectangle-11" fill="#BBD4F7"></path>
        <path d="M7.324,13 C7.2439996,13 7.17600028,12.9720003 7.12,12.916 C7.06399972,12.8599997 7.036,12.7920004 7.036,12.712 L7.036,6.52 L5.224,7.912 C5.17599976,7.9520002 5.11600036,7.972 5.044,7.972 C4.94799952,7.972 4.87200028,7.9320004 4.816,7.852 L4.3,7.18 C4.2599998,7.12399972 4.24,7.06800028 4.24,7.012 C4.24,6.91599952 4.28399956,6.83600032 4.372,6.772 L7.06,4.684 C7.14800044,4.62799972 7.24799944,4.6 7.36,4.6 L8.44,4.6 C8.5200004,4.6 8.58799972,4.62799972 8.644,4.684 C8.70000028,4.74000028 8.728,4.8079996 8.728,4.888 L8.728,12.712 C8.728,12.7920004 8.70000028,12.8599997 8.644,12.916 C8.58799972,12.9720003 8.5200004,13 8.44,13 L7.324,13 Z" id="1" fill="#0764E3"></path>
        <path d="M30.828,13 C30.7479996,13 30.6800003,12.9720003 30.624,12.916 C30.5679997,12.8599997 30.54,12.7920004 30.54,12.712 L30.54,12.088 C30.54,11.8639989 30.639999,11.6760008 30.84,11.524 L32.712,9.664 C33.2800028,9.21599776 33.7179985,8.85000142 34.026,8.566 C34.3340015,8.28199858 34.5639992,8.0200012 34.716,7.78 C34.8680008,7.5399988 34.944,7.30400116 34.944,7.072 C34.944,6.69599812 34.844001,6.40000108 34.644,6.184 C34.443999,5.96799892 34.140002,5.86 33.732,5.86 C33.331998,5.86 33.0180011,5.97799882 32.79,6.214 C32.5619989,6.45000118 32.4200003,6.75599812 32.364,7.132 C32.3399999,7.22800048 32.2940003,7.29799978 32.226,7.342 C32.1579997,7.38600022 32.0840004,7.408 32.004,7.408 L30.924,7.408 C30.8519996,7.408 30.7920002,7.38400024 30.744,7.336 C30.6959998,7.28799976 30.672,7.22800036 30.672,7.156 C30.6880001,6.68399764 30.8179988,6.24200206 31.062,5.83 C31.3060012,5.41799794 31.6559977,5.08600126 32.112,4.834 C32.5680023,4.58199874 33.1039969,4.456 33.72,4.456 C34.3600032,4.456 34.9039978,4.5659989 35.352,4.786 C35.8000022,5.0060011 36.1359989,5.30799808 36.36,5.692 C36.5840011,6.07600192 36.696,6.51199756 36.696,7 C36.696,7.53600268 36.5460015,8.02199782 36.246,8.458 C35.9459985,8.89400218 35.4800032,9.35999752 34.848,9.856 L33.18,11.548 L36.576,11.548 C36.6640004,11.548 36.7359997,11.5759997 36.792,11.632 C36.8480003,11.6880003 36.876,11.7599996 36.876,11.848 L36.876,12.712 C36.876,12.8000004 36.8480003,12.8699997 36.792,12.922 C36.7359997,12.9740003 36.6640004,13 36.576,13 L30.828,13 Z" id="2" fill="#0764E3"></path>
    </g>
</svg>