<?xml version="1.0" encoding="UTF-8"?>
<svg width="48px" height="40px" viewBox="0 0 48 40" version="1.1" xmlns="http://www.w3.org/2000/svg" xmlns:xlink="http://www.w3.org/1999/xlink">
    <!-- Generator: Sketch 52.6 (67491) - http://www.bohemiancoding.com/sketch -->
    <title>Icons/Sections/Products</title>
    <desc>Created with Sketch.</desc>
    <defs>
        <rect id="path-1" x="0" y="0" width="44" height="19" rx="3"></rect>
    </defs>
    <g id="Icons/Sections/Products" stroke="none" stroke-width="1" fill="none" fill-rule="evenodd">
        <rect id="Combined-Shape" stroke="#E8F0FC" stroke-width="1.5" fill="#E8F0FC" x="0.75" y="0.75" width="46.5" height="38.5" rx="4"></rect>
        <g id="shopping-bag" transform="translate(2.000000, 2.000000)">
            <mask id="mask-2" fill="white">
                <use xlink:href="#path-1"></use>
            </mask>
            <use id="Mask" fill="#FFFFFF" xlink:href="#path-1"></use>
            <path d="M30.9999571,7.75001729 L30.9999571,8.25001609 C30.9999571,8.45834909 30.9270408,8.63543168 30.7812076,8.78126483 C30.6353745,8.92709797 30.4582919,9.00001431 30.2499589,9.00001431 L29.9999595,9.00001431 L29.1874614,14.7187507 C29.1249616,15.0937498 28.953087,15.4010406 28.6718376,15.6406235 C28.3905883,15.8802064 28.0624641,15.9999976 27.687465,15.9999976 L16.3124921,15.9999976 C15.937493,15.9999976 15.6093688,15.8802064 15.3281194,15.6406235 C15.0468701,15.4010406 14.8749955,15.0937498 14.8124957,14.7187507 L13.9999976,9.00001431 L13.7499982,9.00001431 C13.5416652,9.00001431 13.3645826,8.92709797 13.2187495,8.78126483 C13.0729163,8.63543168 13,8.45834909 13,8.25001609 L13,7.75001729 C13,7.54168429 13.0729163,7.3646017 13.2187495,7.21876855 C13.3645826,7.07293541 13.5416652,7.00001907 13.7499982,7.00001907 L15.8437432,7.00001907 L19.1874852,2.40628003 C19.3541514,2.17711406 19.5729008,2.0416974 19.8437337,2.00003099 C20.1145665,1.95836459 20.3645659,2.02086444 20.5937319,2.18753055 C20.8228979,2.35419666 20.9583145,2.57294614 20.9999809,2.84377898 C21.0416473,3.11461183 20.9791475,3.36461123 20.8124814,3.59377719 L18.3124873,7.00001907 L25.6874698,7.00001907 L23.1874757,3.59377719 C23.0208096,3.36461123 22.9583097,3.11461183 22.9999762,2.84377898 C23.0416426,2.57294614 23.1770592,2.35419666 23.4062252,2.18753055 C23.6353912,2.02086444 23.8853906,1.95836459 24.1562234,2.00003099 C24.4270562,2.0416974 24.6458057,2.17711406 24.8124718,2.40628003 L28.1562139,7.00001907 L30.2499589,7.00001907 C30.4582919,7.00001907 30.6353745,7.07293541 30.7812076,7.21876855 C30.9270408,7.3646017 30.9999571,7.54168429 30.9999571,7.75001729 Z M22.7499768,13.2500042 L22.7499768,9.75001252 C22.7499768,9.54167952 22.6770604,9.36459693 22.5312273,9.21876378 C22.3853941,9.07293064 22.2083115,9.00001431 21.9999785,9.00001431 C21.7916455,9.00001431 21.614563,9.07293064 21.4687298,9.21876378 C21.3228967,9.36459693 21.2499803,9.54167952 21.2499803,9.75001252 L21.2499803,13.2500042 C21.2499803,13.4583372 21.3228967,13.6354198 21.4687298,13.7812529 C21.614563,13.9270861 21.7916455,14.0000024 21.9999785,14.0000024 C22.2083115,14.0000024 22.3853941,13.9270861 22.5312273,13.7812529 C22.6770604,13.6354198 22.7499768,13.4583372 22.7499768,13.2500042 Z M26.2499684,13.2500042 L26.2499684,9.75001252 C26.2499684,9.54167952 26.1770521,9.36459693 26.0312189,9.21876378 C25.8853858,9.07293064 25.7083032,9.00001431 25.4999702,9.00001431 C25.2916372,9.00001431 25.1145546,9.07293064 24.9687215,9.21876378 C24.8228883,9.36459693 24.749972,9.54167952 24.749972,9.75001252 L24.749972,13.2500042 C24.749972,13.4583372 24.8228883,13.6354198 24.9687215,13.7812529 C25.1145546,13.9270861 25.2916372,14.0000024 25.4999702,14.0000024 C25.7083032,14.0000024 25.8853858,13.9270861 26.0312189,13.7812529 C26.1770521,13.6354198 26.2499684,13.4583372 26.2499684,13.2500042 Z M19.2499851,13.2500042 L19.2499851,9.75001252 C19.2499851,9.54167952 19.1770688,9.36459693 19.0312356,9.21876378 C18.8854025,9.07293064 18.7083199,9.00001431 18.4999869,9.00001431 C18.2916539,9.00001431 18.1145713,9.07293064 17.9687382,9.21876378 C17.822905,9.36459693 17.7499887,9.54167952 17.7499887,9.75001252 L17.7499887,13.2500042 C17.7499887,13.4583372 17.822905,13.6354198 17.9687382,13.7812529 C18.1145713,13.9270861 18.2916539,14.0000024 18.4999869,14.0000024 C18.7083199,14.0000024 18.8854025,13.9270861 19.0312356,13.7812529 C19.1770688,13.6354198 19.2499851,13.4583372 19.2499851,13.2500042 Z" id="shopping-basket" fill="#BBD4F7" mask="url(#mask-2)"></path>
        </g>
        <rect id="Rectangle-11" fill="#BBD4F7" x="6" y="25" width="11" height="3" rx="1.5"></rect>
        <rect id="Rectangle-11" fill="#BBD4F7" x="6" y="30" width="36" height="2" rx="1"></rect>
        <rect id="Rectangle-11" fill="#0764E3" x="6" y="34" width="7" height="2" rx="1"></rect>
    </g>
</svg>