<?xml version="1.0" encoding="UTF-8"?>
<svg width="48px" height="40px" viewBox="0 0 48 40" version="1.1" xmlns="http://www.w3.org/2000/svg" xmlns:xlink="http://www.w3.org/1999/xlink">
    <!-- Generator: Sketch 52.2 (67145) - http://www.bohemiancoding.com/sketch -->
    <title>Icons/Sections/Project</title>
    <desc>Created with Sketch.</desc>
    <defs>
        <rect id="path-1" x="0" y="0" width="44" height="23" rx="4"></rect>
    </defs>
    <g id="Icons/Sections/Project" stroke="none" stroke-width="1" fill="none" fill-rule="evenodd">
        <rect id="Combined-Shape" stroke="#E8F0FC" stroke-width="1.5" fill="#E8F0FC" x="0.75" y="0.75" width="46.5" height="38.5" rx="4"></rect>
        <rect id="Rectangle-11" fill="#0764E3" x="5" y="32" width="28" height="3" rx="1.5"></rect>
        <rect id="Rectangle-11" fill="#BBD4F7" x="5" y="28" width="6" height="2" rx="1"></rect>
        <rect id="Rectangle-11" fill="#BBD4F7" x="13" y="28" width="6" height="2" rx="1"></rect>
        <g id="image" transform="translate(2.000000, 2.000000)">
            <mask id="mask-2" fill="white">
                <use xlink:href="#path-1"></use>
            </mask>
            <use id="Mask" fill="#FFFFFF" xlink:href="#path-1"></use>
            <path d="M54.1873315,-16.4998605 C56.2185759,-16.4998605 57.9451358,-15.7889239 59.3670066,-14.3670531 C60.7888775,-12.9451823 61.499814,-11.2186223 61.499814,-9.18737796 L61.499814,34.6875174 C61.499814,36.7187618 60.7888775,38.4453217 59.3670066,39.8671926 C57.9451358,41.2890634 56.2185759,42 54.1873315,42 L-9.18751743,42 C-11.2187618,42 -12.9453217,41.2890634 -14.3671926,39.8671926 C-15.7890634,38.4453217 -16.5,36.7187618 -16.5,34.6875174 L-16.5,-9.18737796 C-16.5,-11.2186223 -15.7890634,-12.9451823 -14.3671926,-14.3670531 C-12.9453217,-15.7889239 -11.2187618,-16.4998605 -9.18751743,-16.4998605 L54.1873315,-16.4998605 Z M53.2732711,34.6875174 C53.4763949,34.6875174 53.679521,34.5859544 53.8826447,34.3828307 C54.0857684,34.1797069 54.1873315,33.9765809 54.1873315,33.7734571 L54.1873315,-8.27331764 C54.1873315,-8.47644138 54.0857684,-8.67956745 53.8826447,-8.88269119 C53.679521,-9.08581493 53.4763949,-9.18737796 53.2732711,-9.18737796 L-8.27345711,-9.18737796 C-8.47658085,-9.18737796 -8.67970692,-9.08581493 -8.88283066,-8.88269119 C-9.0859544,-8.67956745 -9.18751743,-8.47644138 -9.18751743,-8.27331764 L-9.18751743,33.7734571 C-9.18751743,33.9765809 -9.0859544,34.1797069 -8.88283066,34.3828307 C-8.67970692,34.5859544 -8.47658085,34.6875174 -8.27345711,34.6875174 L53.2732711,34.6875174 Z M2.99995351,-3.09364249 C4.72651112,-3.09364249 6.17377329,-2.50966028 7.34174003,-1.34169354 C8.50970677,-0.1737268 9.09368898,1.27353537 9.09368898,3.00009298 C9.09368898,4.72665059 8.50970677,6.17391277 7.34174003,7.34187951 C6.17377329,8.50984625 4.72651112,9.09382845 2.99995351,9.09382845 C1.2733959,9.09382845 -0.173866275,8.50984625 -1.34183301,7.34187951 C-2.50979976,6.17391277 -3.09378196,4.72665059 -3.09378196,3.00009298 C-3.09378196,1.27353537 -2.50979976,-0.1737268 -1.34183301,-1.34169354 C-0.173866275,-2.50966028 1.2733959,-3.09364249 2.99995351,-3.09364249 Z M-1.87503487,27.3750349 L-1.87503487,20.0625523 L4.2187006,13.9688168 C4.52338738,13.6641301 4.92963718,13.5117867 5.4374477,13.5117867 C5.94525821,13.5117867 6.35150802,13.6641301 6.65619479,13.9688168 L12.7499303,20.0625523 L31.0311367,1.78134589 C31.3358235,1.47665912 31.7420733,1.32431573 32.2498838,1.32431573 C32.7576943,1.32431573 33.1639441,1.47665912 33.4686309,1.78134589 L46.8748489,15.1875639 L46.8748489,27.3750349 L-1.87503487,27.3750349 Z" fill="#E8F0FC" mask="url(#mask-2)"></path>
        </g>
    </g>
</svg>