<?xml version="1.0" encoding="UTF-8"?>
<svg width="48px" height="40px" viewBox="0 0 48 40" version="1.1" xmlns="http://www.w3.org/2000/svg" xmlns:xlink="http://www.w3.org/1999/xlink">
    <!-- Generator: Sketch 52.2 (67145) - http://www.bohemiancoding.com/sketch -->
    <title>Icons/Sections/Reviews</title>
    <desc>Created with Sketch.</desc>
    <g id="Icons/Sections/Reviews" stroke="none" stroke-width="1" fill="none" fill-rule="evenodd">
        <rect id="Rectangle-" fill="#E8F0FC" x="0" y="0" width="22" height="40" rx="4"></rect>
        <rect id="Rectangle-" fill="#E8F0FC" x="26" y="0" width="22" height="40" rx="4"></rect>
        <path d="M8.43358169,5.60158252 C8.5117065,5.4453329 8.62563842,5.34116658 8.77537775,5.28908327 C8.92511708,5.23699996 9.0748561,5.23699996 9.22459543,5.28908327 C9.37433475,5.34116658 9.48826667,5.4453329 9.56639149,5.60158252 L10.8359197,8.17970138 L13.6874754,8.58985665 C13.8567459,8.61589815 13.9902091,8.69402297 14.0878651,8.82423109 C14.1855211,8.95443921 14.2310938,9.09766794 14.2245835,9.25391757 C14.2180732,9.41016719 14.1562243,9.54688562 14.0390371,9.66407284 L11.9687295,11.6757868 L12.4570096,14.5273425 C12.4830511,14.6835921 12.4537543,14.8300761 12.3691192,14.9667946 C12.2844841,15.103513 12.1640415,15.1914034 12.0077919,15.2304658 C11.8515423,15.2695282 11.701803,15.249997 11.5585742,15.1718722 L8.99998659,13.8437504 L6.44139894,15.1718722 C6.29817021,15.249997 6.14843089,15.2695282 5.99218126,15.2304658 C5.83593163,15.1914034 5.71548911,15.103513 5.630854,14.9667946 C5.54621888,14.8300761 5.51692208,14.6835921 5.54296358,14.5273425 L6.03124367,11.6757868 L3.9609361,9.66407284 C3.84374888,9.54688562 3.78189997,9.41016719 3.77538967,9.25391757 C3.76887937,9.09766794 3.81445208,8.95443921 3.91210809,8.82423109 C4.00976411,8.69402297 4.14322724,8.61589815 4.31249776,8.58985665 L7.16405347,8.17970138 L8.43358169,5.60158252 Z" id="star" fill="#0764E3"></path>
        <path d="M34.4335817,5.60158252 C34.5117065,5.4453329 34.6256384,5.34116658 34.7753777,5.28908327 C34.9251171,5.23699996 35.0748561,5.23699996 35.2245954,5.28908327 C35.3743348,5.34116658 35.4882667,5.4453329 35.5663915,5.60158252 L36.8359197,8.17970138 L39.6874754,8.58985665 C39.8567459,8.61589815 39.9902091,8.69402297 40.0878651,8.82423109 C40.1855211,8.95443921 40.2310938,9.09766794 40.2245835,9.25391757 C40.2180732,9.41016719 40.1562243,9.54688562 40.0390371,9.66407284 L37.9687295,11.6757868 L38.4570096,14.5273425 C38.4830511,14.6835921 38.4537543,14.8300761 38.3691192,14.9667946 C38.2844841,15.103513 38.1640415,15.1914034 38.0077919,15.2304658 C37.8515423,15.2695282 37.701803,15.249997 37.5585742,15.1718722 L34.9999866,13.8437504 L32.4413989,15.1718722 C32.2981702,15.249997 32.1484309,15.2695282 31.9921813,15.2304658 C31.8359316,15.1914034 31.7154891,15.103513 31.630854,14.9667946 C31.5462189,14.8300761 31.5169221,14.6835921 31.5429636,14.5273425 L32.0312437,11.6757868 L29.9609361,9.66407284 C29.8437489,9.54688562 29.7819,9.41016719 29.7753897,9.25391757 C29.7688794,9.09766794 29.8144521,8.95443921 29.9121081,8.82423109 C30.0097641,8.69402297 30.1432272,8.61589815 30.3124978,8.58985665 L33.1640535,8.17970138 L34.4335817,5.60158252 Z" id="star" fill="#0764E3"></path>
        <path d="M5,28 L17,28 C17.5522847,28 18,28.4477153 18,29 L18,29 C18,29.5522847 17.5522847,30 17,30 L5,30 C4.44771525,30 4,29.5522847 4,29 L4,29 C4,28.4477153 4.44771525,28 5,28 Z" id="Rectangle-11" fill="#BBD4F7"></path>
        <path d="M31,28 L43,28 C43.5522847,28 44,28.4477153 44,29 L44,29 C44,29.5522847 43.5522847,30 43,30 L31,30 C30.4477153,30 30,29.5522847 30,29 L30,29 C30,28.4477153 30.4477153,28 31,28 Z" id="Rectangle-11" fill="#BBD4F7"></path>
        <path d="M5,24 L17,24 C17.5522847,24 18,24.4477153 18,25 L18,25 C18,25.5522847 17.5522847,26 17,26 L5,26 C4.44771525,26 4,25.5522847 4,25 L4,25 C4,24.4477153 4.44771525,24 5,24 Z" id="Rectangle-11" fill="#BBD4F7"></path>
        <path d="M31,24 L43,24 C43.5522847,24 44,24.4477153 44,25 L44,25 C44,25.5522847 43.5522847,26 43,26 L31,26 C30.4477153,26 30,25.5522847 30,25 L30,25 C30,24.4477153 30.4477153,24 31,24 Z" id="Rectangle-11" fill="#BBD4F7"></path>
        <rect id="Rectangle-11" fill="#BBD4F7" x="4" y="32" width="13" height="2" rx="1"></rect>
        <rect id="Rectangle-11" fill="#BBD4F7" x="30" y="32" width="13" height="2" rx="1"></rect>
    </g>
</svg>