<?xml version="1.0" encoding="UTF-8"?>
<svg width="48px" height="40px" viewBox="0 0 48 40" version="1.1" xmlns="http://www.w3.org/2000/svg" xmlns:xlink="http://www.w3.org/1999/xlink">
    <!-- Generator: Sketch 52.2 (67145) - http://www.bohemiancoding.com/sketch -->
    <title>Icons/Sections/Slider</title>
    <desc>Created with Sketch.</desc>
    <g id="Icons/Sections/Slider" stroke="none" stroke-width="1" fill="none" fill-rule="evenodd">
        <rect id="Combined-Shape" stroke="#E8F0FC" stroke-width="1.5" fill="#E8F0FC" x="0.75" y="0.75" width="46.5" height="38.5" rx="4"></rect>
        <g id="image-copy" transform="translate(2.000000, 2.000000)" fill="#FFFFFF">
            <path d="M6.99995351,-0.0936424881 C8.72651112,-0.0936424881 10.1737733,0.49033972 11.34174,1.65830646 C12.5097068,2.8262732 13.093689,4.27353537 13.093689,6.00009298 C13.093689,7.72665059 12.5097068,9.17391277 11.34174,10.3418795 C10.1737733,11.5098462 8.72651112,12.0938285 6.99995351,12.0938285 C5.2733959,12.0938285 3.82613373,11.5098462 2.65816699,10.3418795 C1.49020024,9.17391277 0.906218037,7.72665059 0.906218037,6.00009298 C0.906218037,4.27353537 1.49020024,2.8262732 2.65816699,1.65830646 C3.82613373,0.49033972 5.2733959,-0.0936424881 6.99995351,-0.0936424881 Z M-2,38 L-2,30.7017544 L4,24.619883 C4.3,24.3157895 4.70000076,24.1637427 5.2,24.1637427 C5.69999924,24.1637427 6.1,24.3157895 6.4,24.619883 L12.4,30.7017544 L30.4,12.4561404 C30.7,12.1520468 31.1000008,12 31.6,12 C32.0999992,12 32.5,12.1520468 32.8,12.4561404 L46,25.8362573 L46,38 L-2,38 Z" id="image"></path>
        </g>
        <path d="M42.0156127,19.968762 L37.9960911,24.0156273 C37.9231744,24.088544 37.8457008,24.1250021 37.7636698,24.1250021 C37.6816387,24.1250021 37.6041651,24.0976584 37.5312484,24.042971 L36.9843747,23.4960973 C36.9296874,23.4231807 36.9023437,23.3411496 36.9023437,23.2500042 C36.9023437,23.1588587 36.9296874,23.0859421 36.9843747,23.0312547 L40.2382732,19.7500125 L36.9843747,16.4687703 C36.9296874,16.414083 36.9023437,16.3411663 36.9023437,16.2500209 C36.9023437,16.1588754 36.9296874,16.0768443 36.9843747,16.0039277 L37.5312484,15.457054 C37.6041651,15.4023666 37.6816387,15.3750229 37.7636698,15.3750229 C37.8457008,15.3750229 37.9231744,15.4023666 37.9960911,15.457054 L42.0156127,19.5039194 C42.0703001,19.576836 42.0976438,19.658867 42.0976438,19.7500125 C42.0976438,19.841158 42.0703001,19.923189 42.0156127,19.9961057 L42.0156127,19.968762 Z" id="angle-right" fill="#0764E3"></path>
        <path d="M5.98437474,19.5039194 L10.0038964,15.457054 C10.076813,15.4023666 10.1542867,15.3750229 10.2363177,15.3750229 C10.3183488,15.3750229 10.3958224,15.4023666 10.468739,15.457054 L11.0156127,16.0039277 C11.0703001,16.0768443 11.0976438,16.1588754 11.0976438,16.2500209 C11.0976438,16.3411663 11.0703001,16.414083 11.0156127,16.4687703 L7.76171425,19.7500125 L11.0156127,23.0312547 C11.0703001,23.0859421 11.0976438,23.1588587 11.0976438,23.2500042 C11.0976438,23.3411496 11.0703001,23.4231807 11.0156127,23.4960973 L10.468739,24.0156273 C10.3958224,24.088544 10.3183488,24.1250021 10.2363177,24.1250021 C10.1542867,24.1250021 10.076813,24.0976584 10.0038964,24.042971 L5.98437474,19.968762 C5.92968737,19.9140746 5.90234368,19.841158 5.90234368,19.7500125 C5.90234368,19.658867 5.92968737,19.576836 5.98437474,19.5039194 Z" id="angle-left" fill="#0764E3"></path>
        <rect id="Rectangle-11" fill="#BBD4F7" x="5" y="28" width="28" height="3" rx="1.5"></rect>
        <rect id="Rectangle-11" fill="#BBD4F7" x="5" y="33" width="6" height="2" rx="1"></rect>
        <rect id="Rectangle-11" fill="#BBD4F7" x="13" y="33" width="6" height="2" rx="1"></rect>
    </g>
</svg>