<?xml version="1.0" encoding="UTF-8"?>
<svg width="48px" height="40px" viewBox="0 0 48 40" version="1.1" xmlns="http://www.w3.org/2000/svg" xmlns:xlink="http://www.w3.org/1999/xlink">
    <!-- Generator: Sketch 52.2 (67145) - http://www.bohemiancoding.com/sketch -->
    <title>Icons/Sections/Social links</title>
    <desc>Created with Sketch.</desc>
    <g id="Icons/Sections/Social-links" stroke="none" stroke-width="1" fill="none" fill-rule="evenodd">
        <rect id="Rectangle" fill="#E8F0FC" x="0" y="0" width="40" height="40" rx="4"></rect>
        <path d="M26.4472229,17.0624903 C26.4667542,17.1410159 26.4765197,17.2686195 26.4765197,17.4453016 C26.4765197,18.8587587 26.1347237,20.2231372 25.4511323,21.5384377 C24.7480095,22.9322633 23.7616844,24.0414346 22.4921573,24.8659512 C21.1054431,25.7886244 19.513651,26.2499613 17.7167819,26.2499613 C15.9980372,26.2499613 14.4257769,25.7886244 13,24.8659512 C13.2148429,24.8855827 13.4589831,24.8953982 13.7324195,24.8953982 C15.1581964,24.8953982 16.4374889,24.4536929 17.570298,23.5702822 C16.8867065,23.5702822 16.2861225,23.3690611 15.7685459,22.9666183 C15.2509693,22.5641755 14.8945254,22.0586686 14.6992133,21.4500966 C14.8945254,21.4697281 15.0800715,21.4795437 15.2558522,21.4795437 C15.5292887,21.4795437 15.8027256,21.4500966 16.0761621,21.3912026 C15.3730393,21.2341519 14.7871037,20.8709717 14.3183552,20.3016628 C13.8496067,19.7323538 13.6152324,19.0845193 13.6152324,18.3581593 L13.6152324,18.2992652 C14.0449187,18.5544729 14.5039013,18.6918921 14.9921812,18.7115236 C14.5820262,18.4170533 14.2499962,18.0440576 13.9960906,17.5925367 C13.742185,17.1410159 13.6152324,16.645324 13.6152324,16.1054621 C13.6152324,15.5656002 13.7617163,15.0502773 14.0546841,14.5594934 C14.8164005,15.5214296 15.7490145,16.2870522 16.8525268,16.8563612 C17.9560391,17.4256701 19.1327929,17.7397718 20.382789,17.7986659 C20.3437268,17.5630897 20.3241955,17.3275135 20.3241955,17.0919373 C20.3241955,16.5422594 20.4609139,16.0269365 20.7343504,15.5459687 C21.0077869,15.0650008 21.3788796,14.687097 21.8476281,14.4122583 C22.3163766,14.1374196 22.8241874,14 23.3710608,14 C23.820278,14 24.2353158,14.0883411 24.616174,14.2650232 C24.9970322,14.4417053 25.3339452,14.6772815 25.626913,14.9717517 C26.3300357,14.8343321 26.9843304,14.5889404 27.5897974,14.2355762 C27.3554231,14.9619362 26.9062059,15.5312452 26.2421454,15.9435035 C26.828081,15.8649779 27.4140167,15.6981118 27.9999523,15.4429041 C27.570266,16.0711071 27.0526899,16.6109695 26.4472229,17.0624903 Z" id="twitter" fill="#0764E3"></path>
    </g>
</svg>