<?xml version="1.0" encoding="UTF-8"?>
<svg width="48px" height="40px" viewBox="0 0 48 40" version="1.1" xmlns="http://www.w3.org/2000/svg" xmlns:xlink="http://www.w3.org/1999/xlink">
    <!-- Generator: Sketch 52.6 (67491) - http://www.bohemiancoding.com/sketch -->
    <title>Icons/Sections/Tables</title>
    <desc>Created with Sketch.</desc>
    <g id="Icons/Sections/Tables" stroke="none" stroke-width="1" fill="none" fill-rule="evenodd">
        <rect id="Rectangle-" fill="#E8F0FC" x="0" y="0" width="48" height="40" rx="4"></rect>
        <rect id="Rectangle-2" fill="#BBD4F7" x="2" y="20" width="44" height="6"></rect>
        <rect id="Rectangle-2" fill="#BBD4F7" x="2" y="8" width="44" height="6"></rect>
        <path d="M2,32 L46,32 L46,35 C46,36.6568542 44.6568542,38 43,38 L5,38 C3.34314575,38 2,36.6568542 2,35 L2,32 Z" id="Rectangle-2" fill="#BBD4F7"></path>
        <path d="M5,2 L43,2 C44.6568542,2 46,3.34314575 46,5 L46,8 L2,8 L2,5 C2,3.34314575 3.34314575,2 5,2 Z" id="Rectangle" fill="#0764E3" opacity="0.805412946"></path>
        <rect id="Rectangle-12" fill="#BBD4F7" x="9" y="4" width="21" height="2" rx="1"></rect>
        <rect id="Rectangle-12" fill="#FFFFFF" x="9" y="10" width="21" height="2" rx="1"></rect>
        <rect id="Rectangle-12" fill="#FFFFFF" x="9" y="16" width="21" height="2" rx="1"></rect>
        <rect id="Rectangle-12" fill="#FFFFFF" x="9" y="22" width="21" height="2" rx="1"></rect>
        <rect id="Rectangle-12" fill="#FFFFFF" x="9" y="28" width="21" height="2" rx="1"></rect>
        <rect id="Rectangle-12" fill="#FFFFFF" x="9" y="34" width="21" height="2" rx="1"></rect>
        <path d="M5,4 L6,4 C6.55228475,4 7,4.44771525 7,5 L7,5 C7,5.55228475 6.55228475,6 6,6 L5,6 C4.44771525,6 4,5.55228475 4,5 L4,5 C4,4.44771525 4.44771525,4 5,4 Z" id="Rectangle-12" fill="#BBD4F7"></path>
        <rect id="Rectangle-12" fill="#BBD4F7" x="32" y="4" width="12" height="2" rx="1"></rect>
        <path d="M5,10 L6,10 C6.55228475,10 7,10.4477153 7,11 L7,11 C7,11.5522847 6.55228475,12 6,12 L5,12 C4.44771525,12 4,11.5522847 4,11 L4,11 C4,10.4477153 4.44771525,10 5,10 Z" id="Rectangle-12" fill="#FFFFFF"></path>
        <rect id="Rectangle-12" fill="#FFFFFF" x="32" y="10" width="12" height="2" rx="1"></rect>
        <path d="M5,16 L6,16 C6.55228475,16 7,16.4477153 7,17 L7,17 C7,17.5522847 6.55228475,18 6,18 L5,18 C4.44771525,18 4,17.5522847 4,17 L4,17 C4,16.4477153 4.44771525,16 5,16 Z" id="Rectangle-12" fill="#FFFFFF"></path>
        <rect id="Rectangle-12" fill="#FFFFFF" x="32" y="16" width="12" height="2" rx="1"></rect>
        <path d="M5,22 L6,22 C6.55228475,22 7,22.4477153 7,23 L7,23 C7,23.5522847 6.55228475,24 6,24 L5,24 C4.44771525,24 4,23.5522847 4,23 L4,23 C4,22.4477153 4.44771525,22 5,22 Z" id="Rectangle-12" fill="#FFFFFF"></path>
        <rect id="Rectangle-12" fill="#FFFFFF" x="32" y="22" width="12" height="2" rx="1"></rect>
        <path d="M5,28 L6,28 C6.55228475,28 7,28.4477153 7,29 L7,29 C7,29.5522847 6.55228475,30 6,30 L5,30 C4.44771525,30 4,29.5522847 4,29 L4,29 C4,28.4477153 4.44771525,28 5,28 Z" id="Rectangle-12" fill="#FFFFFF"></path>
        <rect id="Rectangle-12" fill="#FFFFFF" x="32" y="28" width="12" height="2" rx="1"></rect>
        <path d="M5,34 L6,34 C6.55228475,34 7,34.4477153 7,35 L7,35 C7,35.5522847 6.55228475,36 6,36 L5,36 C4.44771525,36 4,35.5522847 4,35 L4,35 C4,34.4477153 4.44771525,34 5,34 Z" id="Rectangle-12" fill="#FFFFFF"></path>
        <rect id="Rectangle-12" fill="#FFFFFF" x="32" y="34" width="12" height="2" rx="1"></rect>
    </g>
</svg>