<?xml version="1.0" encoding="UTF-8"?>
<svg width="48px" height="40px" viewBox="0 0 48 40" version="1.1" xmlns="http://www.w3.org/2000/svg" xmlns:xlink="http://www.w3.org/1999/xlink">
    <!-- Generator: Sketch 52.2 (67145) - http://www.bohemiancoding.com/sketch -->
    <title>Icons/Sections/Testimonials</title>
    <desc>Created with Sketch.</desc>
    <g id="Icons/Sections/Testimonials" stroke="none" stroke-width="1" fill="none" fill-rule="evenodd">
        <rect id="Rectangle-" fill="#E8F0FC" x="0" y="0" width="22" height="40" rx="4"></rect>
        <rect id="Rectangle-" fill="#E8F0FC" x="26" y="0" width="22" height="40" rx="4"></rect>
        <path d="M9,11 C8.45312512,11 7.94921887,10.8671874 7.48828125,10.6015625 C7.02734363,10.3359376 6.66406238,9.97265637 6.3984375,9.51171875 C6.13281262,9.05078113 6,8.54687488 6,8 C6,7.45312512 6.13281262,6.94921887 6.3984375,6.48828125 C6.66406238,6.02734363 7.02734363,5.66406238 7.48828125,5.3984375 C7.94921887,5.13281262 8.45312512,5 9,5 C9.54687488,5 10.0507811,5.13281262 10.5117188,5.3984375 C10.9726564,5.66406238 11.3359376,6.02734363 11.6015625,6.48828125 C11.8671874,6.94921887 12,7.45312512 12,8 C12,8.54687488 11.8671874,9.05078113 11.6015625,9.51171875 C11.3359376,9.97265637 10.9726564,10.3359376 10.5117188,10.6015625 C10.0507811,10.8671874 9.54687488,11 9,11 Z M11.0089286,12 C11.5446429,12 12.0431546,12.1071429 12.5044643,12.3214286 C12.9657739,12.5357143 13.3303571,12.8273809 13.5982143,13.1964286 C13.8660714,13.5654763 14,13.9642857 14,14.3928571 L14,15.1428571 C14,15.3809523 13.8958332,15.5833334 13.6875,15.75 C13.4791668,15.9166666 13.2261904,16 12.9285714,16 L5.07142857,16 C4.77380964,16 4.52083322,15.9166666 4.3125,15.75 C4.10416678,15.5833334 4,15.3809523 4,15.1428571 L4,14.3928571 C4,13.9642857 4.13392857,13.5654763 4.40178571,13.1964286 C4.66964286,12.8273809 5.03422608,12.5357143 5.49553571,12.3214286 C5.95684535,12.1071429 6.45535714,12 6.99107143,12 L7.37053571,12 C7.89136893,12.1904763 8.43452392,12.2857143 9,12.2857143 C9.56547608,12.2857143 10.1086311,12.1904763 10.6294643,12 L11.0089286,12 Z" id="user" fill="#0764E3"></path>
        <path d="M5,28 L17,28 C17.5522847,28 18,28.4477153 18,29 L18,29 C18,29.5522847 17.5522847,30 17,30 L5,30 C4.44771525,30 4,29.5522847 4,29 L4,29 C4,28.4477153 4.44771525,28 5,28 Z" id="Rectangle-11" fill="#BBD4F7"></path>
        <path d="M31,28 L43,28 C43.5522847,28 44,28.4477153 44,29 L44,29 C44,29.5522847 43.5522847,30 43,30 L31,30 C30.4477153,30 30,29.5522847 30,29 L30,29 C30,28.4477153 30.4477153,28 31,28 Z" id="Rectangle-11" fill="#BBD4F7"></path>
        <path d="M5,24 L17,24 C17.5522847,24 18,24.4477153 18,25 L18,25 C18,25.5522847 17.5522847,26 17,26 L5,26 C4.44771525,26 4,25.5522847 4,25 L4,25 C4,24.4477153 4.44771525,24 5,24 Z" id="Rectangle-11" fill="#BBD4F7"></path>
        <path d="M31,24 L43,24 C43.5522847,24 44,24.4477153 44,25 L44,25 C44,25.5522847 43.5522847,26 43,26 L31,26 C30.4477153,26 30,25.5522847 30,25 L30,25 C30,24.4477153 30.4477153,24 31,24 Z" id="Rectangle-11" fill="#BBD4F7"></path>
        <rect id="Rectangle-11" fill="#BBD4F7" x="4" y="32" width="13" height="2" rx="1"></rect>
        <rect id="Rectangle-11" fill="#BBD4F7" x="30" y="32" width="13" height="2" rx="1"></rect>
        <path d="M35,11 C34.4531251,11 33.9492189,10.8671874 33.4882812,10.6015625 C33.0273436,10.3359376 32.6640624,9.97265637 32.3984375,9.51171875 C32.1328126,9.05078113 32,8.54687488 32,8 C32,7.45312512 32.1328126,6.94921887 32.3984375,6.48828125 C32.6640624,6.02734363 33.0273436,5.66406238 33.4882812,5.3984375 C33.9492189,5.13281262 34.4531251,5 35,5 C35.5468749,5 36.0507811,5.13281262 36.5117188,5.3984375 C36.9726564,5.66406238 37.3359376,6.02734363 37.6015625,6.48828125 C37.8671874,6.94921887 38,7.45312512 38,8 C38,8.54687488 37.8671874,9.05078113 37.6015625,9.51171875 C37.3359376,9.97265637 36.9726564,10.3359376 36.5117188,10.6015625 C36.0507811,10.8671874 35.5468749,11 35,11 Z M37.0089286,12 C37.5446429,12 38.0431546,12.1071429 38.5044643,12.3214286 C38.9657739,12.5357143 39.3303571,12.8273809 39.5982143,13.1964286 C39.8660714,13.5654763 40,13.9642857 40,14.3928571 L40,15.1428571 C40,15.3809523 39.8958332,15.5833334 39.6875,15.75 C39.4791668,15.9166666 39.2261904,16 38.9285714,16 L31.0714286,16 C30.7738096,16 30.5208332,15.9166666 30.3125,15.75 C30.1041668,15.5833334 30,15.3809523 30,15.1428571 L30,14.3928571 C30,13.9642857 30.1339286,13.5654763 30.4017857,13.1964286 C30.6696429,12.8273809 31.0342261,12.5357143 31.4955357,12.3214286 C31.9568454,12.1071429 32.4553571,12 32.9910714,12 L33.3705357,12 C33.8913689,12.1904763 34.4345239,12.2857143 35,12.2857143 C35.5654761,12.2857143 36.1086311,12.1904763 36.6294643,12 L37.0089286,12 Z" id="user" fill="#0764E3"></path>
    </g>
</svg>