<?xml version="1.0" encoding="UTF-8"?>
<svg width="48px" height="40px" viewBox="0 0 48 40" version="1.1" xmlns="http://www.w3.org/2000/svg" xmlns:xlink="http://www.w3.org/1999/xlink">
    <!-- Generator: Sketch 52.1 (67048) - http://www.bohemiancoding.com/sketch -->
    <title>Icons/Sections/Blockquote</title>
    <desc>Created with Sketch.</desc>
    <g id="Icons/Sections/Blockquote" stroke="none" stroke-width="1" fill="none" fill-rule="evenodd">
        <rect id="Combined-Shape" stroke="#E8F0FC" stroke-width="1.5" fill="#E8F0FC" x="0.75" y="0.75" width="46.5" height="38.5" rx="4"></rect>
        <rect id="Rectangle-11" fill="#BBD4F7" x="8" y="23" width="32" height="3" rx="1.5"></rect>
        <rect id="Rectangle-11" fill="#BBD4F7" x="8" y="29" width="23" height="3" rx="1.5"></rect>
        <path d="M17.0624784,12.2500089 C17.3228943,12.2500089 17.5442482,12.3411547 17.7265393,12.5234458 C17.9088304,12.7057369 17.9999762,12.9270908 17.9999762,13.1875067 L17.9999762,15.6875007 C17.9999762,15.9479167 17.9088304,16.1692705 17.7265393,16.3515617 C17.5442482,16.5338528 17.3228943,16.6249985 17.0624784,16.6249985 L14.5624844,16.6249985 C14.3020684,16.6249985 14.0807146,16.5338528 13.8984234,16.3515617 C13.7161323,16.1692705 13.6249866,15.9479167 13.6249866,15.6875007 L13.6249866,11.0000119 C13.6249866,10.4401173 13.7649603,9.91928543 14.0449075,9.43751565 C14.3248546,8.95574586 14.7057131,8.5748874 15.1874829,8.29494025 C15.6692526,8.0149931 16.1900845,7.87501937 16.7499791,7.87501937 L16.9062288,7.87501937 C17.0364369,7.87501937 17.1471135,7.92059208 17.2382592,8.0117378 C17.3294049,8.10288351 17.3749776,8.21356013 17.3749776,8.34376825 L17.3749776,9.28126602 C17.3749776,9.41147414 17.3294049,9.52215076 17.2382592,9.61329648 C17.1471135,9.70444219 17.0364369,9.7500149 16.9062288,9.7500149 L16.7499791,9.7500149 C16.4114384,9.7500149 16.1184703,9.87371242 15.871075,10.1211078 C15.6236796,10.3685031 15.4999821,10.6614712 15.4999821,11.0000119 L15.4999821,12.2500089 L17.0624784,12.2500089 Z M11.4374918,12.2500089 C11.6979078,12.2500089 11.9192616,12.3411547 12.1015527,12.5234458 C12.2838439,12.7057369 12.3749896,12.9270908 12.3749896,13.1875067 L12.3749896,15.6875007 C12.3749896,15.9479167 12.2838439,16.1692705 12.1015527,16.3515617 C11.9192616,16.5338528 11.6979078,16.6249985 11.4374918,16.6249985 L8.93749776,16.6249985 C8.67708182,16.6249985 8.45572798,16.5338528 8.27343685,16.3515617 C8.09114572,16.1692705 8,15.9479167 8,15.6875007 L8,11.0000119 C8,10.4401173 8.13997372,9.91928543 8.41992087,9.43751565 C8.69986802,8.95574586 9.08072649,8.5748874 9.56249627,8.29494025 C10.0442661,8.0149931 10.565098,7.87501937 11.1249925,7.87501937 L11.2812422,7.87501937 C11.4114503,7.87501937 11.5221269,7.92059208 11.6132726,8.0117378 C11.7044184,8.10288351 11.7499911,8.21356013 11.7499911,8.34376825 L11.7499911,9.28126602 C11.7499911,9.41147414 11.7044184,9.52215076 11.6132726,9.61329648 C11.5221269,9.70444219 11.4114503,9.7500149 11.2812422,9.7500149 L11.1249925,9.7500149 C10.7864518,9.7500149 10.4934837,9.87371242 10.2460884,10.1211078 C9.99869305,10.3685031 9.87499553,10.6614712 9.87499553,11.0000119 L9.87499553,12.2500089 L11.4374918,12.2500089 Z" id="quote-left" fill="#0764E3"></path>
    </g>
</svg>