<?xml version="1.0" encoding="UTF-8"?>
<svg width="48px" height="40px" viewBox="0 0 48 40" version="1.1" xmlns="http://www.w3.org/2000/svg" xmlns:xlink="http://www.w3.org/1999/xlink">
    <!-- Generator: Sketch 52.2 (67145) - http://www.bohemiancoding.com/sketch -->
    <title>Icons/Sections/Timeline</title>
    <desc>Created with Sketch.</desc>
    <g id="Icons/Sections/Timeline" stroke="none" stroke-width="1" fill="none" fill-rule="evenodd">
        <rect id="Combined-Shape" fill="#BBD4F7" x="9" y="0" width="39" height="18" rx="4"></rect>
        <rect id="Combined-Shape-Copy" fill="#BBD4F7" x="9" y="22" width="39" height="18" rx="4"></rect>
        <rect id="Rectangle" fill="#FFFFFF" x="15" y="6" width="9" height="3" rx="1.5"></rect>
        <rect id="Rectangle-Copy" fill="#FFFFFF" x="15" y="28" width="9" height="3" rx="1.5"></rect>
        <rect id="Rectangle" fill="#FFFFFF" x="15" y="10" width="23" height="2" rx="1"></rect>
        <rect id="Rectangle-Copy-2" fill="#FFFFFF" x="15" y="32" width="23" height="2" rx="1"></rect>
        <rect id="Rectangle" fill="#E8F0FC" x="2" y="11" width="2" height="18" rx="1"></rect>
        <rect id="Rectangle-Copy-3" fill="#E8F0FC" x="2" y="0" width="2" height="7" rx="1"></rect>
        <rect id="Rectangle-Copy-4" fill="#E8F0FC" x="2" y="33" width="2" height="7" rx="1"></rect>
        <circle id="Oval" stroke="#BBD4F7" stroke-width="2" cx="3" cy="9" r="2"></circle>
        <circle id="Oval-Copy" stroke="#BBD4F7" stroke-width="2" cx="3" cy="31" r="2"></circle>
        <rect id="Rectangle" stroke="#BBD4F7" x="5.5" y="31" width="3" height="1"></rect>
        <rect id="Rectangle-Copy-5" stroke="#BBD4F7" x="5.5" y="9" width="3" height="1"></rect>
    </g>
</svg>