<?xml version="1.0" encoding="UTF-8"?>
<svg width="48px" height="40px" viewBox="0 0 48 40" version="1.1" xmlns="http://www.w3.org/2000/svg" xmlns:xlink="http://www.w3.org/1999/xlink">
    <!-- Generator: Sketch 52.1 (67048) - http://www.bohemiancoding.com/sketch -->
    <title>Icons/Sections/ExtendedTabs</title>
    <desc>Created with Sketch.</desc>
    <g id="Icons/Sections/ExtendedTabs" stroke="none" stroke-width="1" fill="none" fill-rule="evenodd">
        <rect id="Combined-Shape" stroke="#E8F0FC" stroke-width="1.5" fill="#E8F0FC" x="0.75" y="0.75" width="46.5" height="38.5" rx="4"></rect>
        <rect id="Rectangle" fill="#BBD4F7" x="0" y="0" width="20" height="40" rx="2"></rect>
        <rect id="Rectangle" fill="#0764E3" x="0" y="8" width="20" height="8" rx="2"></rect>
        <rect id="Rectangle-18" fill="#FFFFFF" x="3" y="3" width="9" height="2" rx="1"></rect>
        <rect id="Rectangle-18" fill="#FFFFFF" x="15" y="3" width="2" height="2" rx="1"></rect>
        <rect id="Rectangle-18" fill="#FFFFFF" x="15" y="11" width="2" height="2" rx="1"></rect>
        <rect id="Rectangle-18" fill="#FFFFFF" x="15" y="19" width="2" height="2" rx="1"></rect>
        <rect id="Rectangle-18" fill="#FFFFFF" x="15" y="27" width="2" height="2" rx="1"></rect>
        <rect id="Rectangle-18" fill="#FFFFFF" x="15" y="35" width="2" height="2" rx="1"></rect>
        <rect id="Rectangle-18" fill="#FFFFFF" x="3" y="19" width="9" height="2" rx="1"></rect>
        <rect id="Rectangle-18" fill="#FFFFFF" x="3" y="11" width="9" height="2" rx="1"></rect>
        <rect id="Rectangle-18" fill="#FFFFFF" x="3" y="27" width="9" height="2" rx="1"></rect>
        <rect id="Rectangle-18" fill="#FFFFFF" x="3" y="35" width="9" height="2" rx="1"></rect>
    </g>
</svg>