<?xml version="1.0" encoding="UTF-8"?>
<svg width="48px" height="40px" viewBox="0 0 48 40" version="1.1" xmlns="http://www.w3.org/2000/svg" xmlns:xlink="http://www.w3.org/1999/xlink">
    <!-- Generator: Sketch 52.2 (67145) - http://www.bohemiancoding.com/sketch -->
    <title>Icons/Sections/VideoButton</title>
    <desc>Created with Sketch.</desc>
    <defs>
        <polygon id="path-1" points="0 0.0416533333 2.72392667 0.0416533333 2.72392667 1.10132 0 1.10132"></polygon>
        <polygon id="path-3" points="0.0413933333 0 1.10079333 0 1.10079333 2.72418667 0.0413933333 2.72418667"></polygon>
    </defs>
    <g id="Icons/Sections/VideoButton" stroke="none" stroke-width="1" fill="none" fill-rule="evenodd">
        <path d="M20,39 C30.4934102,39 39,30.4934102 39,20 C39,9.50658975 30.4934102,1 20,1 C9.50658975,1 1,9.50658975 1,20 C1,30.4934102 9.50658975,39 20,39 Z M15.3933858,12.6984361 C16.1704144,12.1464821 17.5235551,12.8465145 22.1506335,15.541555 C26.5410926,18.0987766 28,19.0462949 28,19.9239779 C28,20.8011943 26.5234628,21.7629015 22.1719957,24.3014341 C17.7670958,26.8711379 16.2365205,27.6618552 15.4555922,27.1903135 C14.700754,26.7345256 14.618358,24.9900131 14.6295549,19.9263861 C14.6403133,15.0610774 14.7323564,13.1679913 15.3933858,12.6984361 Z" id="Combined-Shape" stroke="#BBD4F7" stroke-width="2" fill="#E8F0FC"></path>
        <path d="M16.0107348,13.4287958 C15.9948237,13.5115362 15.9778625,13.6282216 15.9611927,13.7738052 C15.9539537,13.8370261 15.9468409,13.9049675 15.9398641,13.9774674 C15.8616855,13.9419113 15.7889348,13.9097846 15.7218429,13.8812028 C15.5796545,13.820629 15.468032,13.7782947 15.3951203,13.7560264 C15.5127284,13.7838307 15.5936087,13.7734606 15.8050907,13.6232366 C15.9790054,13.4996981 16.0008127,13.4638711 16.0171573,13.3961468 Z M15.9398641,13.9774674 C15.9066251,14.322873 15.8764732,14.7717444 15.850471,15.3065416 C15.7897052,16.5563348 15.7541352,18.2248223 15.7503371,19.9424566 C15.7464859,21.6841125 15.7755036,23.3414886 15.833698,24.5735983 C15.8591635,25.1127629 15.8898092,25.5623171 15.9246427,25.9054628 C16.2361012,25.765638 16.6357503,25.5698425 17.108637,25.3255424 C18.202382,24.7604979 19.6484139,23.9562727 21.1448922,23.0832663 C22.6275776,22.2183063 24.0452871,21.3525455 25.0852155,20.675213 C25.5281462,20.3867207 25.8950057,20.1373365 26.1715206,19.9366407 C25.8934225,19.7353657 25.5240277,19.4849926 25.0776237,19.1950661 C24.0350423,18.5179395 22.6128913,17.6514616 21.1229088,16.7836217 C19.6251617,15.9112593 18.1760957,15.1057541 17.0830219,14.5402645 C16.6290963,14.3054311 16.2435327,14.1155778 15.9398641,13.9774674 Z M16.0032944,26.4584577 C16.0046806,26.464492 16.0060565,26.4702711 16.0074214,26.4757915 C16.0047037,26.4647991 16.0019604,26.4543903 15.998778,26.4443192 Z M15.4025523,26.1144651 C15.3975955,26.115758 15.3925812,26.1171333 15.3874778,26.1185711 C15.4025397,26.1143278 15.4194643,26.1091215 15.4381699,26.1029701 Z M26.623496,20.2909886 C26.6271917,20.294636 26.6310085,20.2983239 26.634948,20.3020918 C26.6232986,20.2909497 26.6098935,20.2786787 26.5947882,20.2653371 Z M15.3951203,13.7560264 C15.388635,13.7540457 15.3824559,13.7522238 15.3765888,13.7505618 C15.3888219,13.754027 15.4005732,13.7572026 15.4120667,13.7599314 Z" id="Path-2" stroke="#BBD4F7" stroke-width="1.5" fill="#BBD4F7"></path>
        <g id="Group-16" transform="translate(21.000000, 24.000000)">
            <path d="M15.8431681,13.533196 L12.6596682,10.3495304 L14.9307592,9.03779741 C15.1083123,8.93546554 15.2116661,8.74056372 15.1969205,8.5362366 C15.1822423,8.33164018 15.0517539,8.15363659 14.8616098,8.07789754 L4.73320399,4.03821235 C4.53464344,3.9587705 4.30793834,4.0055604 4.15671183,4.15656723 C4.00548531,4.30777604 3.95889193,4.53445459 4.03807375,4.73299188 L8.07769345,14.8612213 C8.15344137,15.0516798 8.33146581,15.1820856 8.53615352,15.1968295 C8.74050457,15.2115733 8.93536189,15.1082316 9.03797507,14.9306993 L10.3495924,12.659807 L13.5330923,15.8432707 C13.6336182,15.9434482 13.7695604,16 13.9115625,16 C14.0533626,16 14.1895742,15.9434482 14.2898308,15.8432707 L15.8434375,14.2895093 C16.0522324,14.0807389 16.0522324,13.7419665 15.8431681,13.533196" id="Fill-1" fill="#0764E3"></path>
            <g id="Group-15">
                <path d="M2.32526,1.57607333 C2.11819333,1.36927333 1.78306,1.36927333 1.57606,1.57607333 C1.36926,1.78307333 1.36926,2.11847333 1.57606,2.32527333 L2.75312667,3.50234 C2.85652667,3.60574 2.99192667,3.65754 3.12759333,3.65754 C3.26299333,3.65754 3.39866,3.60574 3.50206,3.50234 C3.70886,3.29534 3.70886,2.96014 3.50206,2.75314 L2.32526,1.57607333 Z" id="Fill-3" fill="#0764E3"></path>
                <g id="Group-7" transform="translate(0.000000, 4.666667)">
                    <mask id="mask-2" fill="white">
                        <use xlink:href="#path-1"></use>
                    </mask>
                    <g id="Clip-6"></g>
                    <path d="M2.72392667,0.57132 C2.72392667,0.27892 2.48699333,0.0416533333 2.19426,0.0416533333 L0.52966,0.0416533333 C0.23726,0.0416533333 -6.66666667e-06,0.27892 -6.66666667e-06,0.57132 C-6.66666667e-06,0.864053333 0.23726,1.10132 0.52966,1.10132 L2.19426,1.10132 C2.48699333,1.10132 2.72392667,0.864053333 2.72392667,0.57132" id="Fill-5" fill="#0764E3" mask="url(#mask-2)"></path>
                </g>
                <path d="M2.50940667,6.87295333 L1.33200667,8.05028667 C1.12527333,8.25702 1.12527333,8.59242 1.33200667,8.79922 C1.43567333,8.90262 1.57107333,8.95442 1.70680667,8.95442 C1.84220667,8.95442 1.97787333,8.90262 2.08127333,8.79922 L3.25834,7.62215333 C3.46534,7.41535333 3.46534,7.07995333 3.25834,6.87295333 C3.05154,6.66642 2.71640667,6.66615333 2.50940667,6.87295333" id="Fill-8" fill="#0764E3"></path>
                <g id="Group-12" transform="translate(4.666667, 0.000000)">
                    <mask id="mask-4" fill="white">
                        <use xlink:href="#path-3"></use>
                    </mask>
                    <g id="Clip-11"></g>
                    <path d="M0.57106,2.72418667 C0.863793333,2.72418667 1.10079333,2.48698667 1.10079333,2.19425333 L1.10079333,0.529653333 C1.10079333,0.237253333 0.863793333,-1.33333333e-05 0.57106,-1.33333333e-05 C0.27866,-1.33333333e-05 0.0413933333,0.237253333 0.0413933333,0.529653333 L0.0413933333,2.19452 C0.0413933333,2.48698667 0.27866,2.72418667 0.57106,2.72418667" id="Fill-10" fill="#0764E3" mask="url(#mask-4)"></path>
                </g>
                <path d="M7.24687333,3.41354 C7.38254,3.41354 7.51820667,3.36200667 7.62160667,3.25860667 L8.79840667,2.08154 C9.00547333,1.87474 9.00547333,1.53934 8.79840667,1.33227333 C8.59167333,1.12554 8.25627333,1.12554 8.04947333,1.33227333 L6.87240667,2.50940667 C6.66560667,2.71614 6.66560667,3.05154 6.87240667,3.25860667 C6.97580667,3.36200667 7.11147333,3.41354 7.24687333,3.41354" id="Fill-13" fill="#0764E3"></path>
            </g>
        </g>
    </g>
</svg>