<?xml version="1.0" encoding="UTF-8"?>
<svg width="48px" height="40px" viewBox="0 0 48 40" version="1.1" xmlns="http://www.w3.org/2000/svg" xmlns:xlink="http://www.w3.org/1999/xlink">
    <!-- Generator: Sketch 52.2 (67145) - http://www.bohemiancoding.com/sketch -->
    <title>Icons/Sections/Working hours</title>
    <desc>Created with Sketch.</desc>
    <g id="Icons/Sections/Working-hours" stroke="none" stroke-width="1" fill="none" fill-rule="evenodd">
        <rect id="Combined-Shape" stroke="#E8F0FC" stroke-width="1.5" fill="#E8F0FC" x="0.75" y="0.75" width="46.5" height="38.5" rx="4"></rect>
        <rect id="Rectangle" fill="#BBD4F7" x="20" y="11" width="12" height="4" rx="2"></rect>
        <rect id="Rectangle-Copy-2" fill="#BBD4F7" x="20" y="25" width="12" height="4" rx="2"></rect>
        <rect id="Rectangle-Copy" fill="#BBD4F7" x="34" y="11" width="7" height="4" rx="2"></rect>
        <rect id="Rectangle-Copy-3" fill="#BBD4F7" x="34" y="25" width="7" height="4" rx="2"></rect>
        <path d="M12,8 C12.9005377,8 13.733871,8.22513451 14.5,8.67540323 C15.266129,9.12567194 15.8743281,9.73387097 16.3245968,10.5 C16.7748655,11.266129 17,12.0994623 17,13 C17,13.9005377 16.7748655,14.733871 16.3245968,15.5 C15.8743281,16.266129 15.266129,16.8743281 14.5,17.3245968 C13.733871,17.7748655 12.9005377,18 12,18 C11.0994623,18 10.266129,17.7748655 9.5,17.3245968 C8.73387097,16.8743281 8.12567194,16.266129 7.67540323,15.5 C7.22513451,14.733871 7,13.9005377 7,13 C7,12.0994623 7.22513451,11.266129 7.67540323,10.5 C8.12567194,9.73387097 8.73387097,9.12567194 9.5,8.67540323 C10.266129,8.22513451 11.0994623,8 12,8 Z M12.9847561,14.9560975 C13.0416668,14.9951219 13.1056912,15.0081301 13.1768293,14.9951219 C13.2479674,14.9821137 13.3048781,14.9495936 13.347561,14.8975609 L13.945122,14.1560975 C13.9878049,14.1040649 14.0055894,14.0455283 13.9984756,13.9804878 C13.9913619,13.9154472 13.9593497,13.8634146 13.9024391,13.8243902 L12.5365854,12.9268292 L12.5365854,10.2341463 C12.5365854,10.1691058 12.5116869,10.113821 12.4618903,10.0682927 C12.4120936,10.0227643 12.3516259,10 12.2804878,10 L11.2560976,10 C11.1849595,10 11.1244918,10.0227643 11.0746951,10.0682927 C11.0248985,10.113821 11,10.1691058 11,10.2341463 L11,13.5121951 C11,13.5902439 11.0355692,13.6552844 11.1067073,13.707317 L12.9847561,14.9560975 Z" id="clock" fill="#0764E3"></path>
        <path d="M12,22 C12.9005377,22 13.733871,22.2251345 14.5,22.6754032 C15.266129,23.1256719 15.8743281,23.733871 16.3245968,24.5 C16.7748655,25.266129 17,26.0994623 17,27 C17,27.9005377 16.7748655,28.733871 16.3245968,29.5 C15.8743281,30.266129 15.266129,30.8743281 14.5,31.3245968 C13.733871,31.7748655 12.9005377,32 12,32 C11.0994623,32 10.266129,31.7748655 9.5,31.3245968 C8.73387097,30.8743281 8.12567194,30.266129 7.67540323,29.5 C7.22513451,28.733871 7,27.9005377 7,27 C7,26.0994623 7.22513451,25.266129 7.67540323,24.5 C8.12567194,23.733871 8.73387097,23.1256719 9.5,22.6754032 C10.266129,22.2251345 11.0994623,22 12,22 Z M12.9847561,28.9560975 C13.0416668,28.9951219 13.1056912,29.0081301 13.1768293,28.9951219 C13.2479674,28.9821137 13.3048781,28.9495936 13.347561,28.8975609 L13.945122,28.1560975 C13.9878049,28.1040649 14.0055894,28.0455283 13.9984756,27.9804878 C13.9913619,27.9154472 13.9593497,27.8634146 13.9024391,27.8243902 L12.5365854,26.9268292 L12.5365854,24.2341463 C12.5365854,24.1691058 12.5116869,24.113821 12.4618903,24.0682927 C12.4120936,24.0227643 12.3516259,24 12.2804878,24 L11.2560976,24 C11.1849595,24 11.1244918,24.0227643 11.0746951,24.0682927 C11.0248985,24.113821 11,24.1691058 11,24.2341463 L11,27.5121951 C11,27.5902439 11.0355692,27.6552844 11.1067073,27.707317 L12.9847561,28.9560975 Z" id="clock-copy" fill="#0764E3"></path>
    </g>
</svg>